<svg xmlns="http://www.w3.org/2000/svg" width="1240" height="1240"><path d="M529.656 77.25c-6.981 33.688-12.684 61.797-12.674 62.465.025 1.708-2.543 2.869-9.482 4.287-8.414 1.72-34.032 9.166-46.298 13.457-35.34 12.365-61.28 24.523-94.467 44.278l-10.764 6.408-3.736-2.297c-2.054-1.263-24.66-16.045-50.235-32.848-25.575-16.803-48.096-31.532-50.047-32.732l-3.547-2.18-55.253 55.259-55.252 55.259 32.824 49.947c18.053 27.471 33.867 51.642 35.142 53.715l2.318 3.767-4.477 7.233c-17.782 28.729-33.386 61.513-45.563 95.732-4.519 12.697-12.231 39.147-14.143 48.5-1.418 6.939-2.579 9.507-4.287 9.482-.668-.01-28.777 5.693-62.465 12.674L16 542.349v156.302l61.25 12.693c33.688 6.981 61.797 12.684 62.465 12.674 1.765-.026 2.808 2.486 4.766 11.482 9.229 42.382 30.87 95.266 56.192 137.311l7.414 12.312-2.273 3.688c-1.251 2.029-17.037 26.17-35.082 53.647l-32.808 49.959 55.241 55.248 55.241 55.247 3.547-2.18c1.951-1.2 24.472-15.929 50.047-32.732 25.575-16.803 48.188-31.589 50.252-32.858l3.752-2.307 11.597 7.142c39.971 24.618 90.637 45.38 139.233 57.056 5.134 1.233 9.491 2.743 9.682 3.355.19.611 6.081 28.899 13.09 62.862l12.743 61.75h156.302l12.743-61.75c7.009-33.963 12.909-62.276 13.112-62.918.202-.642 3.884-1.939 8.181-2.881 32.048-7.027 73.989-22.275 107.813-39.195 22.862-11.436 55.005-30.84 52.396-31.629-25.758-7.798-41.739-17.195-57.054-33.547-18.056-19.281-28.105-41.217-31.309-68.346l-.681-5.766-6.176 3.559c-33.564 19.345-65.865 31.72-106.705 40.878-23.465 5.262-61.829 8.127-87.949 6.57-91.309-5.446-171.425-41.947-234.022-106.622-51.833-53.552-84.038-119.697-95.136-195.393-3.092-21.088-3.367-68.848-.52-90.46 7.23-54.896 26.113-105.671 55.97-150.5C385.966 341.939 474.382 287.088 577 273.344c19.326-2.588 67.903-2.598 87-.016 40.577 5.484 79.089 17.228 114.5 34.918 19.43 9.706 48.213 28.634 65.5 43.074 12.726 10.63 33.018 30.775 43.494 43.18 91.821 108.724 108.899 260.81 43.484 387.25L923.089 797h4.548c5.673 0 22.594 3.401 30.736 6.177 15.383 5.246 29.565 13.941 41.961 25.728 14.137 13.441 24.742 30.074 30.995 48.609l2.349 6.964 7.733-12.989c10.334-17.358 27.114-51.486 34.412-69.989 8.939-22.665 17.346-49.461 21.746-69.318.892-4.025 2.142-7.482 2.777-7.681.635-.2 28.941-6.098 62.904-13.107l61.75-12.743V542.349l-61.75-12.743c-33.963-7.009-62.244-12.897-62.848-13.085-.605-.188-2.329-5.445-3.833-11.681-11.239-46.611-31-94.899-55.54-135.72l-8.044-13.38 3.877-6.12c2.133-3.366 17.909-27.471 35.058-53.566l31.181-47.446-55.253-55.26-55.254-55.26-3.547 2.18c-1.951 1.2-24.472 15.929-50.047 32.732-25.575 16.803-48.18 31.584-50.234 32.847l-3.734 2.296-10.266-6.251c-41.582-25.32-91.503-46.095-135.766-56.498-12.333-2.899-15.006-3.902-14.982-5.623.01-.699-5.693-28.833-12.674-62.521L698.651 16H542.349l-12.693 61.25M899.22 830.497c-29.914 7.73-52.79 30.147-61.449 60.218-3.028 10.516-3.237 33.166-.403 43.785 8.104 30.375 30.461 52.868 61.343 61.717 11.253 3.224 32.35 3.206 43.789-.037 25.939-7.353 47.472-26.205 57.068-49.963 3.928-9.724 5.551-17.199 6.128-28.217.888-16.961-1.865-29.568-9.848-45.089-17.497-34.019-58.859-52.175-96.628-42.414" fill="undefined" fill-rule="evenodd"/></svg>