<?xml version="1.0" encoding="UTF-8" standalone="no"?>
<!-- Created with Inkscape (http://www.inkscape.org/) -->

<svg
   xmlns:dc="http://purl.org/dc/elements/1.1/"
   xmlns:cc="http://creativecommons.org/ns#"
   xmlns:rdf="http://www.w3.org/1999/02/22-rdf-syntax-ns#"
   xmlns:svg="http://www.w3.org/2000/svg"
   xmlns="http://www.w3.org/2000/svg"
   xmlns:sodipodi="http://sodipodi.sourceforge.net/DTD/sodipodi-0.dtd"
   xmlns:inkscape="http://www.inkscape.org/namespaces/inkscape"
   version="1.1"
   id="svg4766"
   width="179"
   height="146"
   viewBox="0 0 179 146"
   sodipodi:docname="allweier-logo-small.svg"
   inkscape:version="0.92.4 (5da689c313, 2019-01-14)">
  <metadata
     id="metadata4772">
    <rdf:RDF>
      <cc:Work
         rdf:about="">
        <dc:format>image/svg+xml</dc:format>
        <dc:type
           rdf:resource="http://purl.org/dc/dcmitype/StillImage" />
        <dc:title></dc:title>
      </cc:Work>
    </rdf:RDF>
  </metadata>
  <defs
     id="defs4770" />
  <sodipodi:namedview
     pagecolor="#ffffff"
     bordercolor="#666666"
     borderopacity="1"
     objecttolerance="10"
     gridtolerance="10"
     guidetolerance="10"
     inkscape:pageopacity="0"
     inkscape:pageshadow="2"
     inkscape:window-width="1920"
     inkscape:window-height="1017"
     id="namedview4768"
     showgrid="false"
     inkscape:zoom="0.80821918"
     inkscape:cx="135.51821"
     inkscape:cy="82.470734"
     inkscape:window-x="-8"
     inkscape:window-y="-8"
     inkscape:window-maximized="1"
     inkscape:current-layer="svg4766" />
  <path
     style="fill:#003770;fill-opacity:1"
     d="m 142.0529,142.84274 c -10.80266,-6.01553 -14.09518,-20.35229 -6.94183,-30.22721 9.33975,-12.893178 28.01958,-11.75934 35.60043,2.16088 2.25671,4.14385 2.57681,5.75695 2.22835,11.22943 -0.32223,5.06057 -1.02165,7.26322 -3.36083,10.58426 -6.16223,8.74878 -18.15249,11.4724 -27.52612,6.25264 z"
     id="path9365"
     inkscape:connector-curvature="0" />
  <path
     style="fill:#c10134;fill-opacity:1"
     d="M 81.274317,67.823342 C 126.01725,35.035589 164.4251,6.8351776 166.6251,5.1557645 c 2.2,-1.67942 4.5625,-3.48317 5.25,-4.00834 0.99623,-0.76100995 1.25,9.6426135 1.25,51.2454975 V 104.5933 l -4.20632,-3.60046 c -4.02446,-3.444788 -11.75599,-6.555398 -16.29368,-6.555398 -4.52575,0 -12.26449,3.10657 -16.2615,6.527868 l -4.17415,3.57291 -0.28217,-11.512268 -0.28217,-11.51226 -30.40172,22.961878 -30.401722,22.96188 H 35.372596 -0.07647392 Z"
     id="path4776"
     inkscape:connector-curvature="0" />
  <path
     style="fill:#003770;fill-opacity:1;fill-rule:evenodd;stroke:#003770;stroke-width:0.07733051;stroke-opacity:0.9859813"
     d=""
     id="path9332"
     inkscape:connector-curvature="0" />
</svg>
