<?xml version="1.0" encoding="utf-8" standalone="no"?>
<!DOCTYPE svg PUBLIC "-//W3C//DTD SVG 1.1//EN"
  "http://www.w3.org/Graphics/SVG/1.1/DTD/svg11.dtd">
<!-- Created with matplotlib (https://matplotlib.org/) -->
<svg height="720pt" version="1.1" viewBox="0 0 1440 720" width="1440pt" xmlns="http://www.w3.org/2000/svg" xmlns:xlink="http://www.w3.org/1999/xlink">
 <defs>
  <style type="text/css">
*{stroke-linecap:butt;stroke-linejoin:round;}
  </style>
 </defs>
 <g id="figure_1">
  <g id="patch_1">
   <path d="M 0 720 
L 1440 720 
L 1440 0 
L 0 0 
z
" style="fill:#ffffff;"/>
  </g>
  <g id="axes_1">
   <g id="patch_2">
    <path d="M 180 576 
L 1296 576 
L 1296 86.4 
L 180 86.4 
z
" style="fill:#ffffff;"/>
   </g>
   <g id="matplotlib.axis_1">
    <g id="xtick_1">
     <g id="text_1">
      <!-- Lunker - zu groß -->
      <defs>
       <path d="M 7.328125 0 
L 7.328125 71.578125 
L 16.796875 71.578125 
L 16.796875 8.453125 
L 52.046875 8.453125 
L 52.046875 0 
z
" id="ArialMT-76"/>
       <path d="M 40.578125 0 
L 40.578125 7.625 
Q 34.515625 -1.171875 24.125 -1.171875 
Q 19.53125 -1.171875 15.546875 0.578125 
Q 11.578125 2.34375 9.640625 5 
Q 7.71875 7.671875 6.9375 11.53125 
Q 6.390625 14.109375 6.390625 19.734375 
L 6.390625 51.859375 
L 15.1875 51.859375 
L 15.1875 23.09375 
Q 15.1875 16.21875 15.71875 13.8125 
Q 16.546875 10.359375 19.234375 8.375 
Q 21.921875 6.390625 25.875 6.390625 
Q 29.828125 6.390625 33.296875 8.421875 
Q 36.765625 10.453125 38.203125 13.9375 
Q 39.65625 17.4375 39.65625 24.078125 
L 39.65625 51.859375 
L 48.4375 51.859375 
L 48.4375 0 
z
" id="ArialMT-117"/>
       <path d="M 6.59375 0 
L 6.59375 51.859375 
L 14.5 51.859375 
L 14.5 44.484375 
Q 20.21875 53.03125 31 53.03125 
Q 35.6875 53.03125 39.625 51.34375 
Q 43.5625 49.65625 45.515625 46.921875 
Q 47.46875 44.1875 48.25 40.4375 
Q 48.734375 37.984375 48.734375 31.890625 
L 48.734375 0 
L 39.9375 0 
L 39.9375 31.546875 
Q 39.9375 36.921875 38.90625 39.578125 
Q 37.890625 42.234375 35.28125 43.8125 
Q 32.671875 45.40625 29.15625 45.40625 
Q 23.53125 45.40625 19.453125 41.84375 
Q 15.375 38.28125 15.375 28.328125 
L 15.375 0 
z
" id="ArialMT-110"/>
       <path d="M 6.640625 0 
L 6.640625 71.578125 
L 15.4375 71.578125 
L 15.4375 30.765625 
L 36.234375 51.859375 
L 47.609375 51.859375 
L 27.78125 32.625 
L 49.609375 0 
L 38.765625 0 
L 21.625 26.515625 
L 15.4375 20.5625 
L 15.4375 0 
z
" id="ArialMT-107"/>
       <path d="M 42.09375 16.703125 
L 51.171875 15.578125 
Q 49.03125 7.625 43.21875 3.21875 
Q 37.40625 -1.171875 28.375 -1.171875 
Q 17 -1.171875 10.328125 5.828125 
Q 3.65625 12.84375 3.65625 25.484375 
Q 3.65625 38.578125 10.390625 45.796875 
Q 17.140625 53.03125 27.875 53.03125 
Q 38.28125 53.03125 44.875 45.953125 
Q 51.46875 38.875 51.46875 26.03125 
Q 51.46875 25.25 51.421875 23.6875 
L 12.75 23.6875 
Q 13.234375 15.140625 17.578125 10.59375 
Q 21.921875 6.0625 28.421875 6.0625 
Q 33.25 6.0625 36.671875 8.59375 
Q 40.09375 11.140625 42.09375 16.703125 
z
M 13.234375 30.90625 
L 42.1875 30.90625 
Q 41.609375 37.453125 38.875 40.71875 
Q 34.671875 45.796875 27.984375 45.796875 
Q 21.921875 45.796875 17.796875 41.75 
Q 13.671875 37.703125 13.234375 30.90625 
z
" id="ArialMT-101"/>
       <path d="M 6.5 0 
L 6.5 51.859375 
L 14.40625 51.859375 
L 14.40625 44 
Q 17.4375 49.515625 20 51.265625 
Q 22.5625 53.03125 25.640625 53.03125 
Q 30.078125 53.03125 34.671875 50.203125 
L 31.640625 42.046875 
Q 28.421875 43.953125 25.203125 43.953125 
Q 22.3125 43.953125 20.015625 42.21875 
Q 17.71875 40.484375 16.75 37.40625 
Q 15.28125 32.71875 15.28125 27.15625 
L 15.28125 0 
z
" id="ArialMT-114"/>
       <path id="ArialMT-32"/>
       <path d="M 3.171875 21.484375 
L 3.171875 30.328125 
L 30.171875 30.328125 
L 30.171875 21.484375 
z
" id="ArialMT-45"/>
       <path d="M 1.953125 0 
L 1.953125 7.125 
L 34.96875 45.015625 
Q 29.34375 44.734375 25.046875 44.734375 
L 3.90625 44.734375 
L 3.90625 51.859375 
L 46.296875 51.859375 
L 46.296875 46.046875 
L 18.21875 13.140625 
L 12.796875 7.125 
Q 18.703125 7.5625 23.875 7.5625 
L 47.859375 7.5625 
L 47.859375 0 
z
" id="ArialMT-122"/>
       <path d="M 4.984375 -4.296875 
L 13.53125 -5.5625 
Q 14.0625 -9.515625 16.5 -11.328125 
Q 19.78125 -13.765625 25.4375 -13.765625 
Q 31.546875 -13.765625 34.859375 -11.328125 
Q 38.1875 -8.890625 39.359375 -4.5 
Q 40.046875 -1.8125 39.984375 6.78125 
Q 34.234375 0 25.640625 0 
Q 14.9375 0 9.078125 7.71875 
Q 3.21875 15.4375 3.21875 26.21875 
Q 3.21875 33.640625 5.90625 39.90625 
Q 8.59375 46.1875 13.6875 49.609375 
Q 18.796875 53.03125 25.6875 53.03125 
Q 34.859375 53.03125 40.828125 45.609375 
L 40.828125 51.859375 
L 48.921875 51.859375 
L 48.921875 7.03125 
Q 48.921875 -5.078125 46.453125 -10.125 
Q 44 -15.1875 38.640625 -18.109375 
Q 33.296875 -21.046875 25.484375 -21.046875 
Q 16.21875 -21.046875 10.5 -16.875 
Q 4.78125 -12.703125 4.984375 -4.296875 
z
M 12.25 26.859375 
Q 12.25 16.65625 16.296875 11.96875 
Q 20.359375 7.28125 26.46875 7.28125 
Q 32.515625 7.28125 36.609375 11.9375 
Q 40.71875 16.609375 40.71875 26.5625 
Q 40.71875 36.078125 36.5 40.90625 
Q 32.28125 45.75 26.3125 45.75 
Q 20.453125 45.75 16.34375 40.984375 
Q 12.25 36.234375 12.25 26.859375 
z
" id="ArialMT-103"/>
       <path d="M 3.328125 25.921875 
Q 3.328125 40.328125 11.328125 47.265625 
Q 18.015625 53.03125 27.640625 53.03125 
Q 38.328125 53.03125 45.109375 46.015625 
Q 51.90625 39.015625 51.90625 26.65625 
Q 51.90625 16.65625 48.90625 10.90625 
Q 45.90625 5.171875 40.15625 2 
Q 34.421875 -1.171875 27.640625 -1.171875 
Q 16.75 -1.171875 10.03125 5.8125 
Q 3.328125 12.796875 3.328125 25.921875 
z
M 12.359375 25.921875 
Q 12.359375 15.96875 16.703125 11.015625 
Q 21.046875 6.0625 27.640625 6.0625 
Q 34.1875 6.0625 38.53125 11.03125 
Q 42.875 16.015625 42.875 26.21875 
Q 42.875 35.84375 38.5 40.796875 
Q 34.125 45.75 27.640625 45.75 
Q 21.046875 45.75 16.703125 40.8125 
Q 12.359375 35.890625 12.359375 25.921875 
z
" id="ArialMT-111"/>
       <path d="M 7.46875 0 
L 7.46875 48.78125 
Q 7.46875 57.71875 9.640625 62.515625 
Q 11.8125 67.328125 16.890625 70.0625 
Q 21.96875 72.796875 28.328125 72.796875 
Q 36.765625 72.796875 41.59375 68.578125 
Q 46.4375 64.359375 46.4375 58.796875 
Q 46.4375 56.296875 45.546875 53.65625 
Q 44.671875 51.03125 42.421875 47.09375 
Q 40.1875 43.171875 39.59375 41.625 
Q 39.015625 40.09375 39.015625 38.921875 
Q 39.015625 37.359375 40.09375 35.84375 
Q 41.109375 34.28125 46 31.109375 
Q 52.640625 26.765625 54.828125 24.125 
Q 57.953125 20.359375 57.953125 15.234375 
Q 57.953125 8.453125 52.953125 3.609375 
Q 47.953125 -1.21875 40.140625 -1.21875 
Q 33.984375 -1.21875 29.34375 2.078125 
Q 24.703125 5.375 22.40625 10.546875 
L 29.984375 14.0625 
Q 32.421875 9.515625 34.859375 7.75 
Q 37.3125 6 39.984375 6 
Q 43.703125 6 46.328125 8.53125 
Q 48.96875 11.078125 48.96875 14.5 
Q 48.96875 17.234375 47.40625 19.1875 
Q 46.390625 20.453125 41.9375 23.484375 
Q 33.84375 29.046875 31.9375 31.84375 
Q 29.984375 34.625 29.984375 37.546875 
Q 29.984375 39.453125 30.640625 41.40625 
Q 31.296875 43.359375 33.8125 47.65625 
Q 36.328125 51.953125 37.109375 54.09375 
Q 37.890625 56.25 37.890625 57.90625 
Q 37.890625 60.9375 35.21875 63.25 
Q 32.5625 65.578125 28.125 65.578125 
Q 22.90625 65.578125 19.578125 62.34375 
Q 16.265625 59.125 16.265625 48.390625 
L 16.265625 0 
z
" id="ArialMT-223"/>
      </defs>
      <g style="fill:#262626;" transform="translate(181.273066 632.781631)rotate(-30)scale(0.11 -0.11)">
       <use xlink:href="#ArialMT-76"/>
       <use x="55.615234" xlink:href="#ArialMT-117"/>
       <use x="111.230469" xlink:href="#ArialMT-110"/>
       <use x="166.845703" xlink:href="#ArialMT-107"/>
       <use x="216.845703" xlink:href="#ArialMT-101"/>
       <use x="272.460938" xlink:href="#ArialMT-114"/>
       <use x="305.761719" xlink:href="#ArialMT-32"/>
       <use x="333.544922" xlink:href="#ArialMT-45"/>
       <use x="366.845703" xlink:href="#ArialMT-32"/>
       <use x="394.628906" xlink:href="#ArialMT-122"/>
       <use x="444.628906" xlink:href="#ArialMT-117"/>
       <use x="500.244141" xlink:href="#ArialMT-32"/>
       <use x="528.027344" xlink:href="#ArialMT-103"/>
       <use x="583.642578" xlink:href="#ArialMT-114"/>
       <use x="616.943359" xlink:href="#ArialMT-111"/>
       <use x="672.558594" xlink:href="#ArialMT-223"/>
      </g>
     </g>
    </g>
    <g id="xtick_2">
     <g id="text_2">
      <!-- Position - versetzt -->
      <defs>
       <path d="M 7.71875 0 
L 7.71875 71.578125 
L 34.71875 71.578125 
Q 41.84375 71.578125 45.609375 70.90625 
Q 50.875 70.015625 54.4375 67.546875 
Q 58.015625 65.09375 60.1875 60.640625 
Q 62.359375 56.203125 62.359375 50.875 
Q 62.359375 41.75 56.546875 35.421875 
Q 50.734375 29.109375 35.546875 29.109375 
L 17.1875 29.109375 
L 17.1875 0 
z
M 17.1875 37.546875 
L 35.6875 37.546875 
Q 44.875 37.546875 48.734375 40.96875 
Q 52.59375 44.390625 52.59375 50.59375 
Q 52.59375 55.078125 50.3125 58.265625 
Q 48.046875 61.46875 44.34375 62.5 
Q 41.9375 63.140625 35.5 63.140625 
L 17.1875 63.140625 
z
" id="ArialMT-80"/>
       <path d="M 3.078125 15.484375 
L 11.765625 16.84375 
Q 12.5 11.625 15.84375 8.84375 
Q 19.1875 6.0625 25.203125 6.0625 
Q 31.25 6.0625 34.171875 8.515625 
Q 37.109375 10.984375 37.109375 14.3125 
Q 37.109375 17.28125 34.515625 19 
Q 32.71875 20.171875 25.53125 21.96875 
Q 15.875 24.421875 12.140625 26.203125 
Q 8.40625 27.984375 6.46875 31.125 
Q 4.546875 34.28125 4.546875 38.09375 
Q 4.546875 41.546875 6.125 44.5 
Q 7.71875 47.46875 10.453125 49.421875 
Q 12.5 50.921875 16.03125 51.96875 
Q 19.578125 53.03125 23.640625 53.03125 
Q 29.734375 53.03125 34.34375 51.265625 
Q 38.96875 49.515625 41.15625 46.5 
Q 43.359375 43.5 44.1875 38.484375 
L 35.59375 37.3125 
Q 35.015625 41.3125 32.203125 43.546875 
Q 29.390625 45.796875 24.265625 45.796875 
Q 18.21875 45.796875 15.625 43.796875 
Q 13.03125 41.796875 13.03125 39.109375 
Q 13.03125 37.40625 14.109375 36.03125 
Q 15.1875 34.625 17.484375 33.6875 
Q 18.796875 33.203125 25.25 31.453125 
Q 34.578125 28.953125 38.25 27.359375 
Q 41.9375 25.78125 44.03125 22.75 
Q 46.140625 19.734375 46.140625 15.234375 
Q 46.140625 10.84375 43.578125 6.953125 
Q 41.015625 3.078125 36.171875 0.953125 
Q 31.34375 -1.171875 25.25 -1.171875 
Q 15.140625 -1.171875 9.84375 3.03125 
Q 4.546875 7.234375 3.078125 15.484375 
z
" id="ArialMT-115"/>
       <path d="M 6.640625 61.46875 
L 6.640625 71.578125 
L 15.4375 71.578125 
L 15.4375 61.46875 
z
M 6.640625 0 
L 6.640625 51.859375 
L 15.4375 51.859375 
L 15.4375 0 
z
" id="ArialMT-105"/>
       <path d="M 25.78125 7.859375 
L 27.046875 0.09375 
Q 23.34375 -0.6875 20.40625 -0.6875 
Q 15.625 -0.6875 12.984375 0.828125 
Q 10.359375 2.34375 9.28125 4.8125 
Q 8.203125 7.28125 8.203125 15.1875 
L 8.203125 45.015625 
L 1.765625 45.015625 
L 1.765625 51.859375 
L 8.203125 51.859375 
L 8.203125 64.703125 
L 16.9375 69.96875 
L 16.9375 51.859375 
L 25.78125 51.859375 
L 25.78125 45.015625 
L 16.9375 45.015625 
L 16.9375 14.703125 
Q 16.9375 10.9375 17.40625 9.859375 
Q 17.875 8.796875 18.921875 8.15625 
Q 19.96875 7.515625 21.921875 7.515625 
Q 23.390625 7.515625 25.78125 7.859375 
z
" id="ArialMT-116"/>
       <path d="M 21 0 
L 1.265625 51.859375 
L 10.546875 51.859375 
L 21.6875 20.796875 
Q 23.484375 15.765625 25 10.359375 
Q 26.171875 14.453125 28.265625 20.21875 
L 39.796875 51.859375 
L 48.828125 51.859375 
L 29.203125 0 
z
" id="ArialMT-118"/>
      </defs>
      <g style="fill:#262626;" transform="translate(229.481253 636.026545)rotate(-30)scale(0.11 -0.11)">
       <use xlink:href="#ArialMT-80"/>
       <use x="66.699219" xlink:href="#ArialMT-111"/>
       <use x="122.314453" xlink:href="#ArialMT-115"/>
       <use x="172.314453" xlink:href="#ArialMT-105"/>
       <use x="194.53125" xlink:href="#ArialMT-116"/>
       <use x="222.314453" xlink:href="#ArialMT-105"/>
       <use x="244.53125" xlink:href="#ArialMT-111"/>
       <use x="300.146484" xlink:href="#ArialMT-110"/>
       <use x="355.761719" xlink:href="#ArialMT-32"/>
       <use x="383.544922" xlink:href="#ArialMT-45"/>
       <use x="416.845703" xlink:href="#ArialMT-32"/>
       <use x="444.628906" xlink:href="#ArialMT-118"/>
       <use x="494.628906" xlink:href="#ArialMT-101"/>
       <use x="550.244141" xlink:href="#ArialMT-114"/>
       <use x="583.544922" xlink:href="#ArialMT-115"/>
       <use x="633.544922" xlink:href="#ArialMT-101"/>
       <use x="689.160156" xlink:href="#ArialMT-116"/>
       <use x="716.943359" xlink:href="#ArialMT-122"/>
       <use x="766.943359" xlink:href="#ArialMT-116"/>
      </g>
     </g>
    </g>
    <g id="xtick_3">
     <g id="text_3">
      <!-- Fehlstellen / Rohstellen - zu groß -->
      <defs>
       <path d="M 8.203125 0 
L 8.203125 71.578125 
L 56.5 71.578125 
L 56.5 63.140625 
L 17.671875 63.140625 
L 17.671875 40.96875 
L 51.265625 40.96875 
L 51.265625 32.515625 
L 17.671875 32.515625 
L 17.671875 0 
z
" id="ArialMT-70"/>
       <path d="M 6.59375 0 
L 6.59375 71.578125 
L 15.375 71.578125 
L 15.375 45.90625 
Q 21.53125 53.03125 30.90625 53.03125 
Q 36.671875 53.03125 40.921875 50.75 
Q 45.171875 48.484375 47 44.484375 
Q 48.828125 40.484375 48.828125 32.859375 
L 48.828125 0 
L 40.046875 0 
L 40.046875 32.859375 
Q 40.046875 39.453125 37.1875 42.453125 
Q 34.328125 45.453125 29.109375 45.453125 
Q 25.203125 45.453125 21.75 43.421875 
Q 18.3125 41.40625 16.84375 37.9375 
Q 15.375 34.46875 15.375 28.375 
L 15.375 0 
z
" id="ArialMT-104"/>
       <path d="M 6.390625 0 
L 6.390625 71.578125 
L 15.1875 71.578125 
L 15.1875 0 
z
" id="ArialMT-108"/>
       <path d="M 0 -1.21875 
L 20.75 72.796875 
L 27.78125 72.796875 
L 7.078125 -1.21875 
z
" id="ArialMT-47"/>
       <path d="M 7.859375 0 
L 7.859375 71.578125 
L 39.59375 71.578125 
Q 49.171875 71.578125 54.140625 69.640625 
Q 59.125 67.71875 62.109375 62.828125 
Q 65.09375 57.953125 65.09375 52.046875 
Q 65.09375 44.4375 60.15625 39.203125 
Q 55.21875 33.984375 44.921875 32.5625 
Q 48.6875 30.765625 50.640625 29 
Q 54.78125 25.203125 58.5 19.484375 
L 70.953125 0 
L 59.03125 0 
L 49.5625 14.890625 
Q 45.40625 21.34375 42.71875 24.75 
Q 40.046875 28.171875 37.921875 29.53125 
Q 35.796875 30.90625 33.59375 31.453125 
Q 31.984375 31.78125 28.328125 31.78125 
L 17.328125 31.78125 
L 17.328125 0 
z
M 17.328125 39.984375 
L 37.703125 39.984375 
Q 44.1875 39.984375 47.84375 41.328125 
Q 51.515625 42.671875 53.421875 45.625 
Q 55.328125 48.578125 55.328125 52.046875 
Q 55.328125 57.125 51.640625 60.390625 
Q 47.953125 63.671875 39.984375 63.671875 
L 17.328125 63.671875 
z
" id="ArialMT-82"/>
      </defs>
      <g style="fill:#262626;" transform="translate(219.313289 673.132724)rotate(-30)scale(0.11 -0.11)">
       <use xlink:href="#ArialMT-70"/>
       <use x="61.083984" xlink:href="#ArialMT-101"/>
       <use x="116.699219" xlink:href="#ArialMT-104"/>
       <use x="172.314453" xlink:href="#ArialMT-108"/>
       <use x="194.53125" xlink:href="#ArialMT-115"/>
       <use x="244.53125" xlink:href="#ArialMT-116"/>
       <use x="272.314453" xlink:href="#ArialMT-101"/>
       <use x="327.929688" xlink:href="#ArialMT-108"/>
       <use x="350.146484" xlink:href="#ArialMT-108"/>
       <use x="372.363281" xlink:href="#ArialMT-101"/>
       <use x="427.978516" xlink:href="#ArialMT-110"/>
       <use x="483.59375" xlink:href="#ArialMT-32"/>
       <use x="511.376953" xlink:href="#ArialMT-47"/>
       <use x="539.160156" xlink:href="#ArialMT-32"/>
       <use x="566.943359" xlink:href="#ArialMT-82"/>
       <use x="639.160156" xlink:href="#ArialMT-111"/>
       <use x="694.775391" xlink:href="#ArialMT-104"/>
       <use x="750.390625" xlink:href="#ArialMT-115"/>
       <use x="800.390625" xlink:href="#ArialMT-116"/>
       <use x="828.173828" xlink:href="#ArialMT-101"/>
       <use x="883.789062" xlink:href="#ArialMT-108"/>
       <use x="906.005859" xlink:href="#ArialMT-108"/>
       <use x="928.222656" xlink:href="#ArialMT-101"/>
       <use x="983.837891" xlink:href="#ArialMT-110"/>
       <use x="1039.453125" xlink:href="#ArialMT-32"/>
       <use x="1067.236328" xlink:href="#ArialMT-45"/>
       <use x="1100.537109" xlink:href="#ArialMT-32"/>
       <use x="1128.320312" xlink:href="#ArialMT-122"/>
       <use x="1178.320312" xlink:href="#ArialMT-117"/>
       <use x="1233.935547" xlink:href="#ArialMT-32"/>
       <use x="1261.71875" xlink:href="#ArialMT-103"/>
       <use x="1317.333984" xlink:href="#ArialMT-114"/>
       <use x="1350.634766" xlink:href="#ArialMT-111"/>
       <use x="1406.25" xlink:href="#ArialMT-223"/>
      </g>
     </g>
    </g>
    <g id="xtick_4">
     <g id="text_4">
      <!-- Durchmesser - zu groß -->
      <defs>
       <path d="M 7.71875 0 
L 7.71875 71.578125 
L 32.375 71.578125 
Q 40.71875 71.578125 45.125 70.5625 
Q 51.265625 69.140625 55.609375 65.4375 
Q 61.28125 60.640625 64.078125 53.1875 
Q 66.890625 45.75 66.890625 36.1875 
Q 66.890625 28.03125 64.984375 21.734375 
Q 63.09375 15.4375 60.109375 11.296875 
Q 57.125 7.171875 53.578125 4.796875 
Q 50.046875 2.4375 45.046875 1.21875 
Q 40.046875 0 33.546875 0 
z
M 17.1875 8.453125 
L 32.46875 8.453125 
Q 39.546875 8.453125 43.578125 9.765625 
Q 47.609375 11.078125 50 13.484375 
Q 53.375 16.84375 55.25 22.53125 
Q 57.125 28.21875 57.125 36.328125 
Q 57.125 47.5625 53.4375 53.59375 
Q 49.75 59.625 44.484375 61.671875 
Q 40.671875 63.140625 32.234375 63.140625 
L 17.1875 63.140625 
z
" id="ArialMT-68"/>
       <path d="M 40.4375 19 
L 49.078125 17.875 
Q 47.65625 8.9375 41.8125 3.875 
Q 35.984375 -1.171875 27.484375 -1.171875 
Q 16.84375 -1.171875 10.375 5.78125 
Q 3.90625 12.75 3.90625 25.734375 
Q 3.90625 34.125 6.6875 40.421875 
Q 9.46875 46.734375 15.15625 49.875 
Q 20.84375 53.03125 27.546875 53.03125 
Q 35.984375 53.03125 41.359375 48.75 
Q 46.734375 44.484375 48.25 36.625 
L 39.703125 35.296875 
Q 38.484375 40.53125 35.375 43.15625 
Q 32.28125 45.796875 27.875 45.796875 
Q 21.234375 45.796875 17.078125 41.03125 
Q 12.9375 36.28125 12.9375 25.984375 
Q 12.9375 15.53125 16.9375 10.796875 
Q 20.953125 6.0625 27.390625 6.0625 
Q 32.5625 6.0625 36.03125 9.234375 
Q 39.5 12.40625 40.4375 19 
z
" id="ArialMT-99"/>
       <path d="M 6.59375 0 
L 6.59375 51.859375 
L 14.453125 51.859375 
L 14.453125 44.578125 
Q 16.890625 48.390625 20.9375 50.703125 
Q 25 53.03125 30.171875 53.03125 
Q 35.9375 53.03125 39.625 50.640625 
Q 43.3125 48.25 44.828125 43.953125 
Q 50.984375 53.03125 60.84375 53.03125 
Q 68.5625 53.03125 72.703125 48.75 
Q 76.859375 44.484375 76.859375 35.59375 
L 76.859375 0 
L 68.109375 0 
L 68.109375 32.671875 
Q 68.109375 37.9375 67.25 40.25 
Q 66.40625 42.578125 64.15625 43.984375 
Q 61.921875 45.40625 58.890625 45.40625 
Q 53.421875 45.40625 49.796875 41.765625 
Q 46.1875 38.140625 46.1875 30.125 
L 46.1875 0 
L 37.40625 0 
L 37.40625 33.6875 
Q 37.40625 39.546875 35.25 42.46875 
Q 33.109375 45.40625 28.21875 45.40625 
Q 24.515625 45.40625 21.359375 43.453125 
Q 18.21875 41.5 16.796875 37.734375 
Q 15.375 33.984375 15.375 26.90625 
L 15.375 0 
z
" id="ArialMT-109"/>
      </defs>
      <g style="fill:#262626;" transform="translate(315.655531 648.666318)rotate(-30)scale(0.11 -0.11)">
       <use xlink:href="#ArialMT-68"/>
       <use x="72.216797" xlink:href="#ArialMT-117"/>
       <use x="127.832031" xlink:href="#ArialMT-114"/>
       <use x="161.132812" xlink:href="#ArialMT-99"/>
       <use x="211.132812" xlink:href="#ArialMT-104"/>
       <use x="266.748047" xlink:href="#ArialMT-109"/>
       <use x="350.048828" xlink:href="#ArialMT-101"/>
       <use x="405.664062" xlink:href="#ArialMT-115"/>
       <use x="455.664062" xlink:href="#ArialMT-115"/>
       <use x="505.664062" xlink:href="#ArialMT-101"/>
       <use x="561.279297" xlink:href="#ArialMT-114"/>
       <use x="594.580078" xlink:href="#ArialMT-32"/>
       <use x="622.363281" xlink:href="#ArialMT-45"/>
       <use x="655.664062" xlink:href="#ArialMT-32"/>
       <use x="683.447266" xlink:href="#ArialMT-122"/>
       <use x="733.447266" xlink:href="#ArialMT-117"/>
       <use x="789.0625" xlink:href="#ArialMT-32"/>
       <use x="816.845703" xlink:href="#ArialMT-103"/>
       <use x="872.460938" xlink:href="#ArialMT-114"/>
       <use x="905.761719" xlink:href="#ArialMT-111"/>
       <use x="961.376953" xlink:href="#ArialMT-223"/>
      </g>
     </g>
    </g>
    <g id="xtick_5">
     <g id="text_5">
      <!-- Fehlstellen / Rohstellen - unbearbeitet -->
      <defs>
       <path d="M 14.703125 0 
L 6.546875 0 
L 6.546875 71.578125 
L 15.328125 71.578125 
L 15.328125 46.046875 
Q 20.90625 53.03125 29.546875 53.03125 
Q 34.328125 53.03125 38.59375 51.09375 
Q 42.875 49.171875 45.625 45.671875 
Q 48.390625 42.1875 49.953125 37.25 
Q 51.515625 32.328125 51.515625 26.703125 
Q 51.515625 13.375 44.921875 6.09375 
Q 38.328125 -1.171875 29.109375 -1.171875 
Q 19.921875 -1.171875 14.703125 6.5 
z
M 14.59375 26.3125 
Q 14.59375 17 17.140625 12.84375 
Q 21.296875 6.0625 28.375 6.0625 
Q 34.125 6.0625 38.328125 11.0625 
Q 42.53125 16.0625 42.53125 25.984375 
Q 42.53125 36.140625 38.5 40.96875 
Q 34.46875 45.796875 28.765625 45.796875 
Q 23 45.796875 18.796875 40.796875 
Q 14.59375 35.796875 14.59375 26.3125 
z
" id="ArialMT-98"/>
       <path d="M 40.4375 6.390625 
Q 35.546875 2.25 31.03125 0.53125 
Q 26.515625 -1.171875 21.34375 -1.171875 
Q 12.796875 -1.171875 8.203125 3 
Q 3.609375 7.171875 3.609375 13.671875 
Q 3.609375 17.484375 5.34375 20.625 
Q 7.078125 23.78125 9.890625 25.6875 
Q 12.703125 27.59375 16.21875 28.5625 
Q 18.796875 29.25 24.03125 29.890625 
Q 34.671875 31.15625 39.703125 32.90625 
Q 39.75 34.71875 39.75 35.203125 
Q 39.75 40.578125 37.25 42.78125 
Q 33.890625 45.75 27.25 45.75 
Q 21.046875 45.75 18.09375 43.578125 
Q 15.140625 41.40625 13.71875 35.890625 
L 5.125 37.0625 
Q 6.296875 42.578125 8.984375 45.96875 
Q 11.671875 49.359375 16.75 51.1875 
Q 21.828125 53.03125 28.515625 53.03125 
Q 35.15625 53.03125 39.296875 51.46875 
Q 43.453125 49.90625 45.40625 47.53125 
Q 47.359375 45.171875 48.140625 41.546875 
Q 48.578125 39.3125 48.578125 33.453125 
L 48.578125 21.734375 
Q 48.578125 9.46875 49.140625 6.21875 
Q 49.703125 2.984375 51.375 0 
L 42.1875 0 
Q 40.828125 2.734375 40.4375 6.390625 
z
M 39.703125 26.03125 
Q 34.90625 24.078125 25.34375 22.703125 
Q 19.921875 21.921875 17.671875 20.9375 
Q 15.4375 19.96875 14.203125 18.09375 
Q 12.984375 16.21875 12.984375 13.921875 
Q 12.984375 10.40625 15.640625 8.0625 
Q 18.3125 5.71875 23.4375 5.71875 
Q 28.515625 5.71875 32.46875 7.9375 
Q 36.421875 10.15625 38.28125 14.015625 
Q 39.703125 17 39.703125 22.796875 
z
" id="ArialMT-97"/>
      </defs>
      <g style="fill:#262626;" transform="translate(306.63906 684.949904)rotate(-30)scale(0.11 -0.11)">
       <use xlink:href="#ArialMT-70"/>
       <use x="61.083984" xlink:href="#ArialMT-101"/>
       <use x="116.699219" xlink:href="#ArialMT-104"/>
       <use x="172.314453" xlink:href="#ArialMT-108"/>
       <use x="194.53125" xlink:href="#ArialMT-115"/>
       <use x="244.53125" xlink:href="#ArialMT-116"/>
       <use x="272.314453" xlink:href="#ArialMT-101"/>
       <use x="327.929688" xlink:href="#ArialMT-108"/>
       <use x="350.146484" xlink:href="#ArialMT-108"/>
       <use x="372.363281" xlink:href="#ArialMT-101"/>
       <use x="427.978516" xlink:href="#ArialMT-110"/>
       <use x="483.59375" xlink:href="#ArialMT-32"/>
       <use x="511.376953" xlink:href="#ArialMT-47"/>
       <use x="539.160156" xlink:href="#ArialMT-32"/>
       <use x="566.943359" xlink:href="#ArialMT-82"/>
       <use x="639.160156" xlink:href="#ArialMT-111"/>
       <use x="694.775391" xlink:href="#ArialMT-104"/>
       <use x="750.390625" xlink:href="#ArialMT-115"/>
       <use x="800.390625" xlink:href="#ArialMT-116"/>
       <use x="828.173828" xlink:href="#ArialMT-101"/>
       <use x="883.789062" xlink:href="#ArialMT-108"/>
       <use x="906.005859" xlink:href="#ArialMT-108"/>
       <use x="928.222656" xlink:href="#ArialMT-101"/>
       <use x="983.837891" xlink:href="#ArialMT-110"/>
       <use x="1039.453125" xlink:href="#ArialMT-32"/>
       <use x="1067.236328" xlink:href="#ArialMT-45"/>
       <use x="1100.537109" xlink:href="#ArialMT-32"/>
       <use x="1128.320312" xlink:href="#ArialMT-117"/>
       <use x="1183.935547" xlink:href="#ArialMT-110"/>
       <use x="1239.550781" xlink:href="#ArialMT-98"/>
       <use x="1295.166016" xlink:href="#ArialMT-101"/>
       <use x="1350.78125" xlink:href="#ArialMT-97"/>
       <use x="1406.396484" xlink:href="#ArialMT-114"/>
       <use x="1439.697266" xlink:href="#ArialMT-98"/>
       <use x="1495.3125" xlink:href="#ArialMT-101"/>
       <use x="1550.927734" xlink:href="#ArialMT-105"/>
       <use x="1573.144531" xlink:href="#ArialMT-116"/>
       <use x="1600.927734" xlink:href="#ArialMT-101"/>
       <use x="1656.542969" xlink:href="#ArialMT-116"/>
      </g>
     </g>
    </g>
    <g id="xtick_6">
     <g id="text_6">
      <!-- Durchmesser - zu klein -->
      <g style="fill:#262626;" transform="translate(423.644398 648.553654)rotate(-30)scale(0.11 -0.11)">
       <use xlink:href="#ArialMT-68"/>
       <use x="72.216797" xlink:href="#ArialMT-117"/>
       <use x="127.832031" xlink:href="#ArialMT-114"/>
       <use x="161.132812" xlink:href="#ArialMT-99"/>
       <use x="211.132812" xlink:href="#ArialMT-104"/>
       <use x="266.748047" xlink:href="#ArialMT-109"/>
       <use x="350.048828" xlink:href="#ArialMT-101"/>
       <use x="405.664062" xlink:href="#ArialMT-115"/>
       <use x="455.664062" xlink:href="#ArialMT-115"/>
       <use x="505.664062" xlink:href="#ArialMT-101"/>
       <use x="561.279297" xlink:href="#ArialMT-114"/>
       <use x="594.580078" xlink:href="#ArialMT-32"/>
       <use x="622.363281" xlink:href="#ArialMT-45"/>
       <use x="655.664062" xlink:href="#ArialMT-32"/>
       <use x="683.447266" xlink:href="#ArialMT-122"/>
       <use x="733.447266" xlink:href="#ArialMT-117"/>
       <use x="789.0625" xlink:href="#ArialMT-32"/>
       <use x="816.845703" xlink:href="#ArialMT-107"/>
       <use x="866.845703" xlink:href="#ArialMT-108"/>
       <use x="889.0625" xlink:href="#ArialMT-101"/>
       <use x="944.677734" xlink:href="#ArialMT-105"/>
       <use x="966.894531" xlink:href="#ArialMT-110"/>
      </g>
     </g>
    </g>
    <g id="xtick_7">
     <g id="text_7">
      <!-- Beschädigungen - beschädigt -->
      <defs>
       <path d="M 7.328125 0 
L 7.328125 71.578125 
L 34.1875 71.578125 
Q 42.390625 71.578125 47.34375 69.40625 
Q 52.296875 67.234375 55.09375 62.71875 
Q 57.90625 58.203125 57.90625 53.265625 
Q 57.90625 48.6875 55.421875 44.625 
Q 52.9375 40.578125 47.90625 38.09375 
Q 54.390625 36.1875 57.875 31.59375 
Q 61.375 27 61.375 20.75 
Q 61.375 15.71875 59.25 11.390625 
Q 57.125 7.078125 54 4.734375 
Q 50.875 2.390625 46.15625 1.1875 
Q 41.453125 0 34.625 0 
z
M 16.796875 41.5 
L 32.28125 41.5 
Q 38.578125 41.5 41.3125 42.328125 
Q 44.921875 43.40625 46.75 45.890625 
Q 48.578125 48.390625 48.578125 52.15625 
Q 48.578125 55.71875 46.875 58.421875 
Q 45.171875 61.140625 41.984375 62.140625 
Q 38.8125 63.140625 31.109375 63.140625 
L 16.796875 63.140625 
z
M 16.796875 8.453125 
L 34.625 8.453125 
Q 39.203125 8.453125 41.0625 8.796875 
Q 44.34375 9.375 46.53125 10.734375 
Q 48.734375 12.109375 50.140625 14.71875 
Q 51.5625 17.328125 51.5625 20.75 
Q 51.5625 24.75 49.515625 27.703125 
Q 47.46875 30.671875 43.828125 31.859375 
Q 40.1875 33.0625 33.34375 33.0625 
L 16.796875 33.0625 
z
" id="ArialMT-66"/>
       <path d="M 40.4375 6.390625 
Q 35.546875 2.25 31.03125 0.53125 
Q 26.515625 -1.171875 21.34375 -1.171875 
Q 12.796875 -1.171875 8.203125 3 
Q 3.609375 7.171875 3.609375 13.671875 
Q 3.609375 17.484375 5.34375 20.625 
Q 7.078125 23.78125 9.890625 25.6875 
Q 12.703125 27.59375 16.21875 28.5625 
Q 18.796875 29.25 24.03125 29.890625 
Q 34.671875 31.15625 39.703125 32.90625 
Q 39.75 34.71875 39.75 35.203125 
Q 39.75 40.578125 37.25 42.78125 
Q 33.890625 45.75 27.25 45.75 
Q 21.046875 45.75 18.09375 43.578125 
Q 15.140625 41.40625 13.71875 35.890625 
L 5.125 37.0625 
Q 6.296875 42.578125 8.984375 45.96875 
Q 11.671875 49.359375 16.75 51.1875 
Q 21.828125 53.03125 28.515625 53.03125 
Q 35.15625 53.03125 39.296875 51.46875 
Q 43.453125 49.90625 45.40625 47.53125 
Q 47.359375 45.171875 48.140625 41.546875 
Q 48.578125 39.3125 48.578125 33.453125 
L 48.578125 21.734375 
Q 48.578125 9.46875 49.140625 6.21875 
Q 49.703125 2.984375 51.375 0 
L 42.1875 0 
Q 40.828125 2.734375 40.4375 6.390625 
z
M 39.703125 26.03125 
Q 34.90625 24.078125 25.34375 22.703125 
Q 19.921875 21.921875 17.671875 20.9375 
Q 15.4375 19.96875 14.203125 18.09375 
Q 12.984375 16.21875 12.984375 13.921875 
Q 12.984375 10.40625 15.640625 8.0625 
Q 18.3125 5.71875 23.4375 5.71875 
Q 28.515625 5.71875 32.46875 7.9375 
Q 36.421875 10.15625 38.28125 14.015625 
Q 39.703125 17 39.703125 22.796875 
z
M 13.8125 62.015625 
L 13.8125 72.015625 
L 23 72.015625 
L 23 62.015625 
z
M 32.03125 62.015625 
L 32.03125 72.015625 
L 41.21875 72.015625 
L 41.21875 62.015625 
z
" id="ArialMT-228"/>
       <path d="M 40.234375 0 
L 40.234375 6.546875 
Q 35.296875 -1.171875 25.734375 -1.171875 
Q 19.53125 -1.171875 14.328125 2.25 
Q 9.125 5.671875 6.265625 11.796875 
Q 3.421875 17.921875 3.421875 25.875 
Q 3.421875 33.640625 6 39.96875 
Q 8.59375 46.296875 13.765625 49.65625 
Q 18.953125 53.03125 25.34375 53.03125 
Q 30.03125 53.03125 33.6875 51.046875 
Q 37.359375 49.078125 39.65625 45.90625 
L 39.65625 71.578125 
L 48.390625 71.578125 
L 48.390625 0 
z
M 12.453125 25.875 
Q 12.453125 15.921875 16.640625 10.984375 
Q 20.84375 6.0625 26.5625 6.0625 
Q 32.328125 6.0625 36.34375 10.765625 
Q 40.375 15.484375 40.375 25.140625 
Q 40.375 35.796875 36.265625 40.765625 
Q 32.171875 45.75 26.171875 45.75 
Q 20.3125 45.75 16.375 40.96875 
Q 12.453125 36.1875 12.453125 25.875 
z
" id="ArialMT-100"/>
      </defs>
      <g style="fill:#262626;" transform="translate(449.435162 664.824628)rotate(-30)scale(0.11 -0.11)">
       <use xlink:href="#ArialMT-66"/>
       <use x="66.699219" xlink:href="#ArialMT-101"/>
       <use x="122.314453" xlink:href="#ArialMT-115"/>
       <use x="172.314453" xlink:href="#ArialMT-99"/>
       <use x="222.314453" xlink:href="#ArialMT-104"/>
       <use x="277.929688" xlink:href="#ArialMT-228"/>
       <use x="333.544922" xlink:href="#ArialMT-100"/>
       <use x="389.160156" xlink:href="#ArialMT-105"/>
       <use x="411.376953" xlink:href="#ArialMT-103"/>
       <use x="466.992188" xlink:href="#ArialMT-117"/>
       <use x="522.607422" xlink:href="#ArialMT-110"/>
       <use x="578.222656" xlink:href="#ArialMT-103"/>
       <use x="633.837891" xlink:href="#ArialMT-101"/>
       <use x="689.453125" xlink:href="#ArialMT-110"/>
       <use x="745.068359" xlink:href="#ArialMT-32"/>
       <use x="772.851562" xlink:href="#ArialMT-45"/>
       <use x="806.152344" xlink:href="#ArialMT-32"/>
       <use x="833.935547" xlink:href="#ArialMT-98"/>
       <use x="889.550781" xlink:href="#ArialMT-101"/>
       <use x="945.166016" xlink:href="#ArialMT-115"/>
       <use x="995.166016" xlink:href="#ArialMT-99"/>
       <use x="1045.166016" xlink:href="#ArialMT-104"/>
       <use x="1100.78125" xlink:href="#ArialMT-228"/>
       <use x="1156.396484" xlink:href="#ArialMT-100"/>
       <use x="1212.011719" xlink:href="#ArialMT-105"/>
       <use x="1234.228516" xlink:href="#ArialMT-103"/>
       <use x="1289.84375" xlink:href="#ArialMT-116"/>
      </g>
     </g>
    </g>
    <g id="xtick_8">
     <g id="text_8">
      <!-- Bearbeitung - versetzt -->
      <g style="fill:#262626;" transform="translate(535.725691 646.119904)rotate(-30)scale(0.11 -0.11)">
       <use xlink:href="#ArialMT-66"/>
       <use x="66.699219" xlink:href="#ArialMT-101"/>
       <use x="122.314453" xlink:href="#ArialMT-97"/>
       <use x="177.929688" xlink:href="#ArialMT-114"/>
       <use x="211.230469" xlink:href="#ArialMT-98"/>
       <use x="266.845703" xlink:href="#ArialMT-101"/>
       <use x="322.460938" xlink:href="#ArialMT-105"/>
       <use x="344.677734" xlink:href="#ArialMT-116"/>
       <use x="372.460938" xlink:href="#ArialMT-117"/>
       <use x="428.076172" xlink:href="#ArialMT-110"/>
       <use x="483.691406" xlink:href="#ArialMT-103"/>
       <use x="539.306641" xlink:href="#ArialMT-32"/>
       <use x="567.089844" xlink:href="#ArialMT-45"/>
       <use x="600.390625" xlink:href="#ArialMT-32"/>
       <use x="628.173828" xlink:href="#ArialMT-118"/>
       <use x="678.173828" xlink:href="#ArialMT-101"/>
       <use x="733.789062" xlink:href="#ArialMT-114"/>
       <use x="767.089844" xlink:href="#ArialMT-115"/>
       <use x="817.089844" xlink:href="#ArialMT-101"/>
       <use x="872.705078" xlink:href="#ArialMT-116"/>
       <use x="900.488281" xlink:href="#ArialMT-122"/>
       <use x="950.488281" xlink:href="#ArialMT-116"/>
      </g>
     </g>
    </g>
    <g id="xtick_9">
     <g id="text_9">
      <!-- Länge - zu kurz -->
      <g style="fill:#262626;" transform="translate(617.221823 630.266582)rotate(-30)scale(0.11 -0.11)">
       <use xlink:href="#ArialMT-76"/>
       <use x="55.615234" xlink:href="#ArialMT-228"/>
       <use x="111.230469" xlink:href="#ArialMT-110"/>
       <use x="166.845703" xlink:href="#ArialMT-103"/>
       <use x="222.460938" xlink:href="#ArialMT-101"/>
       <use x="278.076172" xlink:href="#ArialMT-32"/>
       <use x="305.859375" xlink:href="#ArialMT-45"/>
       <use x="339.160156" xlink:href="#ArialMT-32"/>
       <use x="366.943359" xlink:href="#ArialMT-122"/>
       <use x="416.943359" xlink:href="#ArialMT-117"/>
       <use x="472.558594" xlink:href="#ArialMT-32"/>
       <use x="500.341797" xlink:href="#ArialMT-107"/>
       <use x="550.341797" xlink:href="#ArialMT-117"/>
       <use x="605.957031" xlink:href="#ArialMT-114"/>
       <use x="639.257812" xlink:href="#ArialMT-122"/>
      </g>
     </g>
    </g>
    <g id="xtick_10">
     <g id="text_10">
      <!-- Oberflächengüte - rissig -->
      <defs>
       <path d="M 4.828125 34.859375 
Q 4.828125 52.6875 14.390625 62.765625 
Q 23.96875 72.859375 39.109375 72.859375 
Q 49.03125 72.859375 56.984375 68.109375 
Q 64.9375 63.375 69.109375 54.90625 
Q 73.296875 46.4375 73.296875 35.6875 
Q 73.296875 24.8125 68.890625 16.21875 
Q 64.5 7.625 56.4375 3.203125 
Q 48.390625 -1.21875 39.0625 -1.21875 
Q 28.953125 -1.21875 20.984375 3.65625 
Q 13.03125 8.546875 8.921875 16.984375 
Q 4.828125 25.4375 4.828125 34.859375 
z
M 14.59375 34.71875 
Q 14.59375 21.78125 21.546875 14.328125 
Q 28.515625 6.890625 39.015625 6.890625 
Q 49.703125 6.890625 56.609375 14.40625 
Q 63.53125 21.921875 63.53125 35.75 
Q 63.53125 44.484375 60.578125 51 
Q 57.625 57.515625 51.921875 61.109375 
Q 46.234375 64.703125 39.15625 64.703125 
Q 29.109375 64.703125 21.84375 57.78125 
Q 14.59375 50.875 14.59375 34.71875 
z
" id="ArialMT-79"/>
       <path d="M 8.6875 0 
L 8.6875 45.015625 
L 0.921875 45.015625 
L 0.921875 51.859375 
L 8.6875 51.859375 
L 8.6875 57.375 
Q 8.6875 62.59375 9.625 65.140625 
Q 10.890625 68.5625 14.078125 70.671875 
Q 17.28125 72.796875 23.046875 72.796875 
Q 26.765625 72.796875 31.25 71.921875 
L 29.9375 64.265625 
Q 27.203125 64.75 24.75 64.75 
Q 20.75 64.75 19.09375 63.03125 
Q 17.4375 61.328125 17.4375 56.640625 
L 17.4375 51.859375 
L 27.546875 51.859375 
L 27.546875 45.015625 
L 17.4375 45.015625 
L 17.4375 0 
z
" id="ArialMT-102"/>
       <path d="M 40.578125 0 
L 40.578125 7.625 
Q 34.515625 -1.171875 24.125 -1.171875 
Q 19.53125 -1.171875 15.546875 0.578125 
Q 11.578125 2.34375 9.640625 5 
Q 7.71875 7.671875 6.9375 11.53125 
Q 6.390625 14.109375 6.390625 19.734375 
L 6.390625 51.859375 
L 15.1875 51.859375 
L 15.1875 23.09375 
Q 15.1875 16.21875 15.71875 13.8125 
Q 16.546875 10.359375 19.234375 8.375 
Q 21.921875 6.390625 25.875 6.390625 
Q 29.828125 6.390625 33.296875 8.421875 
Q 36.765625 10.453125 38.203125 13.9375 
Q 39.65625 17.4375 39.65625 24.078125 
L 39.65625 51.859375 
L 48.4375 51.859375 
L 48.4375 0 
z
M 13.71875 62.015625 
L 13.71875 72.015625 
L 22.90625 72.015625 
L 22.90625 62.015625 
z
M 31.9375 62.015625 
L 31.9375 72.015625 
L 41.109375 72.015625 
L 41.109375 62.015625 
z
" id="ArialMT-252"/>
      </defs>
      <g style="fill:#262626;" transform="translate(635.7165 650.825866)rotate(-30)scale(0.11 -0.11)">
       <use xlink:href="#ArialMT-79"/>
       <use x="77.783203" xlink:href="#ArialMT-98"/>
       <use x="133.398438" xlink:href="#ArialMT-101"/>
       <use x="189.013672" xlink:href="#ArialMT-114"/>
       <use x="222.314453" xlink:href="#ArialMT-102"/>
       <use x="250.097656" xlink:href="#ArialMT-108"/>
       <use x="272.314453" xlink:href="#ArialMT-228"/>
       <use x="327.929688" xlink:href="#ArialMT-99"/>
       <use x="377.929688" xlink:href="#ArialMT-104"/>
       <use x="433.544922" xlink:href="#ArialMT-101"/>
       <use x="489.160156" xlink:href="#ArialMT-110"/>
       <use x="544.775391" xlink:href="#ArialMT-103"/>
       <use x="600.390625" xlink:href="#ArialMT-252"/>
       <use x="656.005859" xlink:href="#ArialMT-116"/>
       <use x="683.789062" xlink:href="#ArialMT-101"/>
       <use x="739.404297" xlink:href="#ArialMT-32"/>
       <use x="767.1875" xlink:href="#ArialMT-45"/>
       <use x="800.488281" xlink:href="#ArialMT-32"/>
       <use x="828.271484" xlink:href="#ArialMT-114"/>
       <use x="861.572266" xlink:href="#ArialMT-105"/>
       <use x="883.789062" xlink:href="#ArialMT-115"/>
       <use x="933.789062" xlink:href="#ArialMT-115"/>
       <use x="983.789062" xlink:href="#ArialMT-105"/>
       <use x="1006.005859" xlink:href="#ArialMT-103"/>
      </g>
     </g>
    </g>
    <g id="xtick_11">
     <g id="text_11">
      <!-- Fehlstellen / Rohstellen - zu tief -->
      <g style="fill:#262626;" transform="translate(657.977484 669.045451)rotate(-30)scale(0.11 -0.11)">
       <use xlink:href="#ArialMT-70"/>
       <use x="61.083984" xlink:href="#ArialMT-101"/>
       <use x="116.699219" xlink:href="#ArialMT-104"/>
       <use x="172.314453" xlink:href="#ArialMT-108"/>
       <use x="194.53125" xlink:href="#ArialMT-115"/>
       <use x="244.53125" xlink:href="#ArialMT-116"/>
       <use x="272.314453" xlink:href="#ArialMT-101"/>
       <use x="327.929688" xlink:href="#ArialMT-108"/>
       <use x="350.146484" xlink:href="#ArialMT-108"/>
       <use x="372.363281" xlink:href="#ArialMT-101"/>
       <use x="427.978516" xlink:href="#ArialMT-110"/>
       <use x="483.59375" xlink:href="#ArialMT-32"/>
       <use x="511.376953" xlink:href="#ArialMT-47"/>
       <use x="539.160156" xlink:href="#ArialMT-32"/>
       <use x="566.943359" xlink:href="#ArialMT-82"/>
       <use x="639.160156" xlink:href="#ArialMT-111"/>
       <use x="694.775391" xlink:href="#ArialMT-104"/>
       <use x="750.390625" xlink:href="#ArialMT-115"/>
       <use x="800.390625" xlink:href="#ArialMT-116"/>
       <use x="828.173828" xlink:href="#ArialMT-101"/>
       <use x="883.789062" xlink:href="#ArialMT-108"/>
       <use x="906.005859" xlink:href="#ArialMT-108"/>
       <use x="928.222656" xlink:href="#ArialMT-101"/>
       <use x="983.837891" xlink:href="#ArialMT-110"/>
       <use x="1039.453125" xlink:href="#ArialMT-32"/>
       <use x="1067.236328" xlink:href="#ArialMT-45"/>
       <use x="1100.537109" xlink:href="#ArialMT-32"/>
       <use x="1128.320312" xlink:href="#ArialMT-122"/>
       <use x="1178.320312" xlink:href="#ArialMT-117"/>
       <use x="1233.935547" xlink:href="#ArialMT-32"/>
       <use x="1261.71875" xlink:href="#ArialMT-116"/>
       <use x="1289.501953" xlink:href="#ArialMT-105"/>
       <use x="1311.71875" xlink:href="#ArialMT-101"/>
       <use x="1367.333984" xlink:href="#ArialMT-102"/>
      </g>
     </g>
    </g>
    <g id="xtick_12">
     <g id="text_12">
      <!-- Fehlstellen / Rohstellen - zu rau -->
      <g style="fill:#262626;" transform="translate(710.882869 669.657326)rotate(-30)scale(0.11 -0.11)">
       <use xlink:href="#ArialMT-70"/>
       <use x="61.083984" xlink:href="#ArialMT-101"/>
       <use x="116.699219" xlink:href="#ArialMT-104"/>
       <use x="172.314453" xlink:href="#ArialMT-108"/>
       <use x="194.53125" xlink:href="#ArialMT-115"/>
       <use x="244.53125" xlink:href="#ArialMT-116"/>
       <use x="272.314453" xlink:href="#ArialMT-101"/>
       <use x="327.929688" xlink:href="#ArialMT-108"/>
       <use x="350.146484" xlink:href="#ArialMT-108"/>
       <use x="372.363281" xlink:href="#ArialMT-101"/>
       <use x="427.978516" xlink:href="#ArialMT-110"/>
       <use x="483.59375" xlink:href="#ArialMT-32"/>
       <use x="511.376953" xlink:href="#ArialMT-47"/>
       <use x="539.160156" xlink:href="#ArialMT-32"/>
       <use x="566.943359" xlink:href="#ArialMT-82"/>
       <use x="639.160156" xlink:href="#ArialMT-111"/>
       <use x="694.775391" xlink:href="#ArialMT-104"/>
       <use x="750.390625" xlink:href="#ArialMT-115"/>
       <use x="800.390625" xlink:href="#ArialMT-116"/>
       <use x="828.173828" xlink:href="#ArialMT-101"/>
       <use x="883.789062" xlink:href="#ArialMT-108"/>
       <use x="906.005859" xlink:href="#ArialMT-108"/>
       <use x="928.222656" xlink:href="#ArialMT-101"/>
       <use x="983.837891" xlink:href="#ArialMT-110"/>
       <use x="1039.453125" xlink:href="#ArialMT-32"/>
       <use x="1067.236328" xlink:href="#ArialMT-45"/>
       <use x="1100.537109" xlink:href="#ArialMT-32"/>
       <use x="1128.320312" xlink:href="#ArialMT-122"/>
       <use x="1178.320312" xlink:href="#ArialMT-117"/>
       <use x="1233.935547" xlink:href="#ArialMT-32"/>
       <use x="1261.71875" xlink:href="#ArialMT-114"/>
       <use x="1295.019531" xlink:href="#ArialMT-97"/>
       <use x="1350.634766" xlink:href="#ArialMT-117"/>
      </g>
     </g>
    </g>
    <g id="xtick_13">
     <g id="text_13">
      <!-- Oberflächengüte - zu groß -->
      <g style="fill:#262626;" transform="translate(787.54843 656.6361)rotate(-30)scale(0.11 -0.11)">
       <use xlink:href="#ArialMT-79"/>
       <use x="77.783203" xlink:href="#ArialMT-98"/>
       <use x="133.398438" xlink:href="#ArialMT-101"/>
       <use x="189.013672" xlink:href="#ArialMT-114"/>
       <use x="222.314453" xlink:href="#ArialMT-102"/>
       <use x="250.097656" xlink:href="#ArialMT-108"/>
       <use x="272.314453" xlink:href="#ArialMT-228"/>
       <use x="327.929688" xlink:href="#ArialMT-99"/>
       <use x="377.929688" xlink:href="#ArialMT-104"/>
       <use x="433.544922" xlink:href="#ArialMT-101"/>
       <use x="489.160156" xlink:href="#ArialMT-110"/>
       <use x="544.775391" xlink:href="#ArialMT-103"/>
       <use x="600.390625" xlink:href="#ArialMT-252"/>
       <use x="656.005859" xlink:href="#ArialMT-116"/>
       <use x="683.789062" xlink:href="#ArialMT-101"/>
       <use x="739.404297" xlink:href="#ArialMT-32"/>
       <use x="767.1875" xlink:href="#ArialMT-45"/>
       <use x="800.488281" xlink:href="#ArialMT-32"/>
       <use x="828.271484" xlink:href="#ArialMT-122"/>
       <use x="878.271484" xlink:href="#ArialMT-117"/>
       <use x="933.886719" xlink:href="#ArialMT-32"/>
       <use x="961.669922" xlink:href="#ArialMT-103"/>
       <use x="1017.285156" xlink:href="#ArialMT-114"/>
       <use x="1050.585938" xlink:href="#ArialMT-111"/>
       <use x="1106.201172" xlink:href="#ArialMT-223"/>
      </g>
     </g>
    </g>
    <g id="xtick_14">
     <g id="text_14">
      <!-- Beschädigungen - Späne -->
      <defs>
       <path d="M 4.5 23 
L 13.421875 23.78125 
Q 14.0625 18.40625 16.375 14.96875 
Q 18.703125 11.53125 23.578125 9.40625 
Q 28.46875 7.28125 34.578125 7.28125 
Q 39.984375 7.28125 44.140625 8.890625 
Q 48.296875 10.5 50.3125 13.296875 
Q 52.34375 16.109375 52.34375 19.4375 
Q 52.34375 22.796875 50.390625 25.3125 
Q 48.4375 27.828125 43.953125 29.546875 
Q 41.0625 30.671875 31.203125 33.03125 
Q 21.34375 35.40625 17.390625 37.5 
Q 12.25 40.1875 9.734375 44.15625 
Q 7.234375 48.140625 7.234375 53.078125 
Q 7.234375 58.5 10.296875 63.203125 
Q 13.375 67.921875 19.28125 70.359375 
Q 25.203125 72.796875 32.421875 72.796875 
Q 40.375 72.796875 46.453125 70.234375 
Q 52.546875 67.671875 55.8125 62.6875 
Q 59.078125 57.71875 59.328125 51.421875 
L 50.25 50.734375 
Q 49.515625 57.515625 45.28125 60.984375 
Q 41.0625 64.453125 32.8125 64.453125 
Q 24.21875 64.453125 20.28125 61.296875 
Q 16.359375 58.15625 16.359375 53.71875 
Q 16.359375 49.859375 19.140625 47.359375 
Q 21.875 44.875 33.421875 42.265625 
Q 44.96875 39.65625 49.265625 37.703125 
Q 55.515625 34.8125 58.484375 30.390625 
Q 61.46875 25.984375 61.46875 20.21875 
Q 61.46875 14.5 58.203125 9.4375 
Q 54.9375 4.390625 48.796875 1.578125 
Q 42.671875 -1.21875 35.015625 -1.21875 
Q 25.296875 -1.21875 18.71875 1.609375 
Q 12.15625 4.4375 8.421875 10.125 
Q 4.6875 15.828125 4.5 23 
z
" id="ArialMT-83"/>
       <path d="M 6.59375 -19.875 
L 6.59375 51.859375 
L 14.59375 51.859375 
L 14.59375 45.125 
Q 17.4375 49.078125 21 51.046875 
Q 24.5625 53.03125 29.640625 53.03125 
Q 36.28125 53.03125 41.359375 49.609375 
Q 46.4375 46.1875 49.015625 39.953125 
Q 51.609375 33.734375 51.609375 26.3125 
Q 51.609375 18.359375 48.75 11.984375 
Q 45.90625 5.609375 40.453125 2.21875 
Q 35.015625 -1.171875 29 -1.171875 
Q 24.609375 -1.171875 21.109375 0.6875 
Q 17.625 2.546875 15.375 5.375 
L 15.375 -19.875 
z
M 14.546875 25.640625 
Q 14.546875 15.625 18.59375 10.84375 
Q 22.65625 6.0625 28.421875 6.0625 
Q 34.28125 6.0625 38.453125 11.015625 
Q 42.625 15.96875 42.625 26.375 
Q 42.625 36.28125 38.546875 41.203125 
Q 34.46875 46.140625 28.8125 46.140625 
Q 23.1875 46.140625 18.859375 40.890625 
Q 14.546875 35.640625 14.546875 25.640625 
z
" id="ArialMT-112"/>
      </defs>
      <g style="fill:#262626;" transform="translate(845.72155 654.200693)rotate(-30)scale(0.11 -0.11)">
       <use xlink:href="#ArialMT-66"/>
       <use x="66.699219" xlink:href="#ArialMT-101"/>
       <use x="122.314453" xlink:href="#ArialMT-115"/>
       <use x="172.314453" xlink:href="#ArialMT-99"/>
       <use x="222.314453" xlink:href="#ArialMT-104"/>
       <use x="277.929688" xlink:href="#ArialMT-228"/>
       <use x="333.544922" xlink:href="#ArialMT-100"/>
       <use x="389.160156" xlink:href="#ArialMT-105"/>
       <use x="411.376953" xlink:href="#ArialMT-103"/>
       <use x="466.992188" xlink:href="#ArialMT-117"/>
       <use x="522.607422" xlink:href="#ArialMT-110"/>
       <use x="578.222656" xlink:href="#ArialMT-103"/>
       <use x="633.837891" xlink:href="#ArialMT-101"/>
       <use x="689.453125" xlink:href="#ArialMT-110"/>
       <use x="745.068359" xlink:href="#ArialMT-32"/>
       <use x="772.851562" xlink:href="#ArialMT-45"/>
       <use x="806.152344" xlink:href="#ArialMT-32"/>
       <use x="833.935547" xlink:href="#ArialMT-83"/>
       <use x="900.634766" xlink:href="#ArialMT-112"/>
       <use x="956.25" xlink:href="#ArialMT-228"/>
       <use x="1011.865234" xlink:href="#ArialMT-110"/>
       <use x="1067.480469" xlink:href="#ArialMT-101"/>
      </g>
     </g>
    </g>
    <g id="xtick_15">
     <g id="text_15">
      <!-- Fläche - rissig -->
      <g style="fill:#262626;" transform="translate(947.383624 626.588457)rotate(-30)scale(0.11 -0.11)">
       <use xlink:href="#ArialMT-70"/>
       <use x="61.083984" xlink:href="#ArialMT-108"/>
       <use x="83.300781" xlink:href="#ArialMT-228"/>
       <use x="138.916016" xlink:href="#ArialMT-99"/>
       <use x="188.916016" xlink:href="#ArialMT-104"/>
       <use x="244.53125" xlink:href="#ArialMT-101"/>
       <use x="300.146484" xlink:href="#ArialMT-32"/>
       <use x="327.929688" xlink:href="#ArialMT-45"/>
       <use x="361.230469" xlink:href="#ArialMT-32"/>
       <use x="389.013672" xlink:href="#ArialMT-114"/>
       <use x="422.314453" xlink:href="#ArialMT-105"/>
       <use x="444.53125" xlink:href="#ArialMT-115"/>
       <use x="494.53125" xlink:href="#ArialMT-115"/>
       <use x="544.53125" xlink:href="#ArialMT-105"/>
       <use x="566.748047" xlink:href="#ArialMT-103"/>
      </g>
     </g>
    </g>
    <g id="xtick_16">
     <g id="text_16">
      <!-- Beschädigungen - zu tief -->
      <g style="fill:#262626;" transform="translate(955.781934 652.970927)rotate(-30)scale(0.11 -0.11)">
       <use xlink:href="#ArialMT-66"/>
       <use x="66.699219" xlink:href="#ArialMT-101"/>
       <use x="122.314453" xlink:href="#ArialMT-115"/>
       <use x="172.314453" xlink:href="#ArialMT-99"/>
       <use x="222.314453" xlink:href="#ArialMT-104"/>
       <use x="277.929688" xlink:href="#ArialMT-228"/>
       <use x="333.544922" xlink:href="#ArialMT-100"/>
       <use x="389.160156" xlink:href="#ArialMT-105"/>
       <use x="411.376953" xlink:href="#ArialMT-103"/>
       <use x="466.992188" xlink:href="#ArialMT-117"/>
       <use x="522.607422" xlink:href="#ArialMT-110"/>
       <use x="578.222656" xlink:href="#ArialMT-103"/>
       <use x="633.837891" xlink:href="#ArialMT-101"/>
       <use x="689.453125" xlink:href="#ArialMT-110"/>
       <use x="745.068359" xlink:href="#ArialMT-32"/>
       <use x="772.851562" xlink:href="#ArialMT-45"/>
       <use x="806.152344" xlink:href="#ArialMT-32"/>
       <use x="833.935547" xlink:href="#ArialMT-122"/>
       <use x="883.935547" xlink:href="#ArialMT-117"/>
       <use x="939.550781" xlink:href="#ArialMT-32"/>
       <use x="967.333984" xlink:href="#ArialMT-116"/>
       <use x="995.117188" xlink:href="#ArialMT-105"/>
       <use x="1017.333984" xlink:href="#ArialMT-101"/>
       <use x="1072.949219" xlink:href="#ArialMT-102"/>
      </g>
     </g>
    </g>
    <g id="xtick_17">
     <g id="text_17">
      <!-- Planlauf - zu groß -->
      <g style="fill:#262626;" transform="translate(1039.417013 635.841006)rotate(-30)scale(0.11 -0.11)">
       <use xlink:href="#ArialMT-80"/>
       <use x="66.699219" xlink:href="#ArialMT-108"/>
       <use x="88.916016" xlink:href="#ArialMT-97"/>
       <use x="144.53125" xlink:href="#ArialMT-110"/>
       <use x="200.146484" xlink:href="#ArialMT-108"/>
       <use x="222.363281" xlink:href="#ArialMT-97"/>
       <use x="277.978516" xlink:href="#ArialMT-117"/>
       <use x="333.59375" xlink:href="#ArialMT-102"/>
       <use x="361.376953" xlink:href="#ArialMT-32"/>
       <use x="389.160156" xlink:href="#ArialMT-45"/>
       <use x="422.460938" xlink:href="#ArialMT-32"/>
       <use x="450.244141" xlink:href="#ArialMT-122"/>
       <use x="500.244141" xlink:href="#ArialMT-117"/>
       <use x="555.859375" xlink:href="#ArialMT-32"/>
       <use x="583.642578" xlink:href="#ArialMT-103"/>
       <use x="639.257812" xlink:href="#ArialMT-114"/>
       <use x="672.558594" xlink:href="#ArialMT-111"/>
       <use x="728.173828" xlink:href="#ArialMT-223"/>
      </g>
     </g>
    </g>
    <g id="xtick_18">
     <g id="text_18">
      <!-- Planlauf - zu viel -->
      <g style="fill:#262626;" transform="translate(1098.738201 632.669826)rotate(-30)scale(0.11 -0.11)">
       <use xlink:href="#ArialMT-80"/>
       <use x="66.699219" xlink:href="#ArialMT-108"/>
       <use x="88.916016" xlink:href="#ArialMT-97"/>
       <use x="144.53125" xlink:href="#ArialMT-110"/>
       <use x="200.146484" xlink:href="#ArialMT-108"/>
       <use x="222.363281" xlink:href="#ArialMT-97"/>
       <use x="277.978516" xlink:href="#ArialMT-117"/>
       <use x="333.59375" xlink:href="#ArialMT-102"/>
       <use x="361.376953" xlink:href="#ArialMT-32"/>
       <use x="389.160156" xlink:href="#ArialMT-45"/>
       <use x="422.460938" xlink:href="#ArialMT-32"/>
       <use x="450.244141" xlink:href="#ArialMT-122"/>
       <use x="500.244141" xlink:href="#ArialMT-117"/>
       <use x="555.859375" xlink:href="#ArialMT-32"/>
       <use x="583.642578" xlink:href="#ArialMT-118"/>
       <use x="633.642578" xlink:href="#ArialMT-105"/>
       <use x="655.859375" xlink:href="#ArialMT-101"/>
       <use x="711.474609" xlink:href="#ArialMT-108"/>
      </g>
     </g>
    </g>
    <g id="xtick_19">
     <g id="text_19">
      <!-- Anlagefläche - Späne -->
      <defs>
       <path d="M -0.140625 0 
L 27.34375 71.578125 
L 37.546875 71.578125 
L 66.84375 0 
L 56.0625 0 
L 47.703125 21.6875 
L 17.78125 21.6875 
L 9.90625 0 
z
M 20.515625 29.390625 
L 44.78125 29.390625 
L 37.3125 49.21875 
Q 33.890625 58.25 32.234375 64.0625 
Q 30.859375 57.171875 28.375 50.390625 
z
" id="ArialMT-65"/>
      </defs>
      <g style="fill:#262626;" transform="translate(1131.439982 645.025146)rotate(-30)scale(0.11 -0.11)">
       <use xlink:href="#ArialMT-65"/>
       <use x="66.699219" xlink:href="#ArialMT-110"/>
       <use x="122.314453" xlink:href="#ArialMT-108"/>
       <use x="144.53125" xlink:href="#ArialMT-97"/>
       <use x="200.146484" xlink:href="#ArialMT-103"/>
       <use x="255.761719" xlink:href="#ArialMT-101"/>
       <use x="311.376953" xlink:href="#ArialMT-102"/>
       <use x="339.160156" xlink:href="#ArialMT-108"/>
       <use x="361.376953" xlink:href="#ArialMT-228"/>
       <use x="416.992188" xlink:href="#ArialMT-99"/>
       <use x="466.992188" xlink:href="#ArialMT-104"/>
       <use x="522.607422" xlink:href="#ArialMT-101"/>
       <use x="578.222656" xlink:href="#ArialMT-32"/>
       <use x="606.005859" xlink:href="#ArialMT-45"/>
       <use x="639.306641" xlink:href="#ArialMT-32"/>
       <use x="667.089844" xlink:href="#ArialMT-83"/>
       <use x="733.789062" xlink:href="#ArialMT-112"/>
       <use x="789.404297" xlink:href="#ArialMT-228"/>
       <use x="845.019531" xlink:href="#ArialMT-110"/>
       <use x="900.634766" xlink:href="#ArialMT-101"/>
      </g>
     </g>
    </g>
   </g>
   <g id="matplotlib.axis_2">
    <g id="ytick_1">
     <g id="line2d_1">
      <defs>
       <path d="M 0 0 
L -6 0 
" id="m7b6c82684c" style="stroke:#262626;stroke-width:1.25;"/>
      </defs>
      <g>
       <use style="fill:#262626;stroke:#262626;stroke-width:1.25;" x="180" xlink:href="#m7b6c82684c" y="576"/>
      </g>
     </g>
     <g id="text_20">
      <!-- 0 -->
      <defs>
       <path d="M 4.15625 35.296875 
Q 4.15625 48 6.765625 55.734375 
Q 9.375 63.484375 14.515625 67.671875 
Q 19.671875 71.875 27.484375 71.875 
Q 33.25 71.875 37.59375 69.546875 
Q 41.9375 67.234375 44.765625 62.859375 
Q 47.609375 58.5 49.21875 52.21875 
Q 50.828125 45.953125 50.828125 35.296875 
Q 50.828125 22.703125 48.234375 14.96875 
Q 45.65625 7.234375 40.5 3 
Q 35.359375 -1.21875 27.484375 -1.21875 
Q 17.140625 -1.21875 11.234375 6.203125 
Q 4.15625 15.140625 4.15625 35.296875 
z
M 13.1875 35.296875 
Q 13.1875 17.671875 17.3125 11.828125 
Q 21.4375 6 27.484375 6 
Q 33.546875 6 37.671875 11.859375 
Q 41.796875 17.71875 41.796875 35.296875 
Q 41.796875 52.984375 37.671875 58.78125 
Q 33.546875 64.59375 27.390625 64.59375 
Q 21.34375 64.59375 17.71875 59.46875 
Q 13.1875 52.9375 13.1875 35.296875 
z
" id="ArialMT-48"/>
      </defs>
      <g style="fill:#262626;" transform="translate(164.382969 579.936797)scale(0.11 -0.11)">
       <use xlink:href="#ArialMT-48"/>
      </g>
     </g>
    </g>
    <g id="ytick_2">
     <g id="line2d_2">
      <g>
       <use style="fill:#262626;stroke:#262626;stroke-width:1.25;" x="180" xlink:href="#m7b6c82684c" y="482.742857"/>
      </g>
     </g>
     <g id="text_21">
      <!-- 5 -->
      <defs>
       <path d="M 4.15625 18.75 
L 13.375 19.53125 
Q 14.40625 12.796875 18.140625 9.390625 
Q 21.875 6 27.15625 6 
Q 33.5 6 37.890625 10.78125 
Q 42.28125 15.578125 42.28125 23.484375 
Q 42.28125 31 38.0625 35.34375 
Q 33.84375 39.703125 27 39.703125 
Q 22.75 39.703125 19.328125 37.765625 
Q 15.921875 35.84375 13.96875 32.765625 
L 5.71875 33.84375 
L 12.640625 70.609375 
L 48.25 70.609375 
L 48.25 62.203125 
L 19.671875 62.203125 
L 15.828125 42.96875 
Q 22.265625 47.46875 29.34375 47.46875 
Q 38.71875 47.46875 45.15625 40.96875 
Q 51.609375 34.46875 51.609375 24.265625 
Q 51.609375 14.546875 45.953125 7.46875 
Q 39.0625 -1.21875 27.15625 -1.21875 
Q 17.390625 -1.21875 11.203125 4.25 
Q 5.03125 9.71875 4.15625 18.75 
z
" id="ArialMT-53"/>
      </defs>
      <g style="fill:#262626;" transform="translate(164.382969 486.679654)scale(0.11 -0.11)">
       <use xlink:href="#ArialMT-53"/>
      </g>
     </g>
    </g>
    <g id="ytick_3">
     <g id="line2d_3">
      <g>
       <use style="fill:#262626;stroke:#262626;stroke-width:1.25;" x="180" xlink:href="#m7b6c82684c" y="389.485714"/>
      </g>
     </g>
     <g id="text_22">
      <!-- 10 -->
      <defs>
       <path d="M 37.25 0 
L 28.46875 0 
L 28.46875 56 
Q 25.296875 52.984375 20.140625 49.953125 
Q 14.984375 46.921875 10.890625 45.40625 
L 10.890625 53.90625 
Q 18.265625 57.375 23.78125 62.296875 
Q 29.296875 67.234375 31.59375 71.875 
L 37.25 71.875 
z
" id="ArialMT-49"/>
      </defs>
      <g style="fill:#262626;" transform="translate(158.265938 393.422511)scale(0.11 -0.11)">
       <use xlink:href="#ArialMT-49"/>
       <use x="55.615234" xlink:href="#ArialMT-48"/>
      </g>
     </g>
    </g>
    <g id="ytick_4">
     <g id="line2d_4">
      <g>
       <use style="fill:#262626;stroke:#262626;stroke-width:1.25;" x="180" xlink:href="#m7b6c82684c" y="296.228571"/>
      </g>
     </g>
     <g id="text_23">
      <!-- 15 -->
      <g style="fill:#262626;" transform="translate(158.265938 300.165368)scale(0.11 -0.11)">
       <use xlink:href="#ArialMT-49"/>
       <use x="55.615234" xlink:href="#ArialMT-53"/>
      </g>
     </g>
    </g>
    <g id="ytick_5">
     <g id="line2d_5">
      <g>
       <use style="fill:#262626;stroke:#262626;stroke-width:1.25;" x="180" xlink:href="#m7b6c82684c" y="202.971429"/>
      </g>
     </g>
     <g id="text_24">
      <!-- 20 -->
      <defs>
       <path d="M 50.34375 8.453125 
L 50.34375 0 
L 3.03125 0 
Q 2.9375 3.171875 4.046875 6.109375 
Q 5.859375 10.9375 9.828125 15.625 
Q 13.8125 20.3125 21.34375 26.46875 
Q 33.015625 36.03125 37.109375 41.625 
Q 41.21875 47.21875 41.21875 52.203125 
Q 41.21875 57.421875 37.46875 61 
Q 33.734375 64.59375 27.734375 64.59375 
Q 21.390625 64.59375 17.578125 60.78125 
Q 13.765625 56.984375 13.71875 50.25 
L 4.6875 51.171875 
Q 5.609375 61.28125 11.65625 66.578125 
Q 17.71875 71.875 27.9375 71.875 
Q 38.234375 71.875 44.234375 66.15625 
Q 50.25 60.453125 50.25 52 
Q 50.25 47.703125 48.484375 43.546875 
Q 46.734375 39.40625 42.65625 34.8125 
Q 38.578125 30.21875 29.109375 22.21875 
Q 21.1875 15.578125 18.9375 13.203125 
Q 16.703125 10.84375 15.234375 8.453125 
z
" id="ArialMT-50"/>
      </defs>
      <g style="fill:#262626;" transform="translate(158.265938 206.908225)scale(0.11 -0.11)">
       <use xlink:href="#ArialMT-50"/>
       <use x="55.615234" xlink:href="#ArialMT-48"/>
      </g>
     </g>
    </g>
    <g id="ytick_6">
     <g id="line2d_6">
      <g>
       <use style="fill:#262626;stroke:#262626;stroke-width:1.25;" x="180" xlink:href="#m7b6c82684c" y="109.714286"/>
      </g>
     </g>
     <g id="text_25">
      <!-- 25 -->
      <g style="fill:#262626;" transform="translate(158.265938 113.651083)scale(0.11 -0.11)">
       <use xlink:href="#ArialMT-50"/>
       <use x="55.615234" xlink:href="#ArialMT-53"/>
      </g>
     </g>
    </g>
    <g id="text_26">
     <!-- Gesamt -->
     <defs>
      <path d="M 41.21875 28.078125 
L 41.21875 36.46875 
L 71.53125 36.53125 
L 71.53125 9.96875 
Q 64.546875 4.390625 57.125 1.578125 
Q 49.703125 -1.21875 41.890625 -1.21875 
Q 31.34375 -1.21875 22.71875 3.296875 
Q 14.109375 7.8125 9.71875 16.359375 
Q 5.328125 24.90625 5.328125 35.453125 
Q 5.328125 45.90625 9.6875 54.953125 
Q 14.0625 64.015625 22.265625 68.40625 
Q 30.46875 72.796875 41.15625 72.796875 
Q 48.921875 72.796875 55.1875 70.28125 
Q 61.46875 67.78125 65.03125 63.28125 
Q 68.609375 58.796875 70.453125 51.5625 
L 61.921875 49.21875 
Q 60.296875 54.6875 57.90625 57.8125 
Q 55.515625 60.9375 51.0625 62.8125 
Q 46.625 64.703125 41.21875 64.703125 
Q 34.71875 64.703125 29.984375 62.71875 
Q 25.25 60.75 22.34375 57.515625 
Q 19.4375 54.296875 17.828125 50.4375 
Q 15.09375 43.796875 15.09375 36.03125 
Q 15.09375 26.46875 18.390625 20.015625 
Q 21.6875 13.578125 27.984375 10.453125 
Q 34.28125 7.328125 41.359375 7.328125 
Q 47.515625 7.328125 53.375 9.6875 
Q 59.234375 12.0625 62.25 14.75 
L 62.25 28.078125 
z
" id="ArialMT-71"/>
     </defs>
     <g style="fill:#262626;" transform="translate(151.880938 352.204687)rotate(-90)scale(0.12 -0.12)">
      <use xlink:href="#ArialMT-71"/>
      <use x="77.783203" xlink:href="#ArialMT-101"/>
      <use x="133.398438" xlink:href="#ArialMT-115"/>
      <use x="183.398438" xlink:href="#ArialMT-97"/>
      <use x="239.013672" xlink:href="#ArialMT-109"/>
      <use x="322.314453" xlink:href="#ArialMT-116"/>
     </g>
    </g>
   </g>
   <g id="patch_3">
    <path clip-path="url(#p1e368b0e9d)" d="M 230.727273 576 
L 273.89942 576 
L 273.89942 109.714286 
L 230.727273 109.714286 
z
" style="fill:#1c52c4;opacity:0.8;stroke:#ffffff;stroke-linejoin:miter;"/>
   </g>
   <g id="patch_4">
    <path clip-path="url(#p1e368b0e9d)" d="M 284.692456 576 
L 327.864603 576 
L 327.864603 258.925714 
L 284.692456 258.925714 
z
" style="fill:#1c52c4;opacity:0.8;stroke:#ffffff;stroke-linejoin:miter;"/>
   </g>
   <g id="patch_5">
    <path clip-path="url(#p1e368b0e9d)" d="M 338.65764 576 
L 381.829787 576 
L 381.829787 277.577143 
L 338.65764 277.577143 
z
" style="fill:#1c52c4;opacity:0.8;stroke:#ffffff;stroke-linejoin:miter;"/>
   </g>
   <g id="patch_6">
    <path clip-path="url(#p1e368b0e9d)" d="M 392.622824 576 
L 435.794971 576 
L 435.794971 352.182857 
L 392.622824 352.182857 
z
" style="fill:#1c52c4;opacity:0.8;stroke:#ffffff;stroke-linejoin:miter;"/>
   </g>
   <g id="patch_7">
    <path clip-path="url(#p1e368b0e9d)" d="M 446.588008 576 
L 489.760155 576 
L 489.760155 445.44 
L 446.588008 445.44 
z
" style="fill:#1c52c4;opacity:0.8;stroke:#ffffff;stroke-linejoin:miter;"/>
   </g>
   <g id="patch_8">
    <path clip-path="url(#p1e368b0e9d)" d="M 500.553191 576 
L 543.725338 576 
L 543.725338 464.091429 
L 500.553191 464.091429 
z
" style="fill:#1c52c4;opacity:0.8;stroke:#ffffff;stroke-linejoin:miter;"/>
   </g>
   <g id="patch_9">
    <path clip-path="url(#p1e368b0e9d)" d="M 554.518375 576 
L 597.690522 576 
L 597.690522 501.394286 
L 554.518375 501.394286 
z
" style="fill:#1c52c4;opacity:0.8;stroke:#ffffff;stroke-linejoin:miter;"/>
   </g>
   <g id="patch_10">
    <path clip-path="url(#p1e368b0e9d)" d="M 608.483559 576 
L 651.655706 576 
L 651.655706 501.394286 
L 608.483559 501.394286 
z
" style="fill:#1c52c4;opacity:0.8;stroke:#ffffff;stroke-linejoin:miter;"/>
   </g>
   <g id="patch_11">
    <path clip-path="url(#p1e368b0e9d)" d="M 662.448743 576 
L 705.62089 576 
L 705.62089 520.045714 
L 662.448743 520.045714 
z
" style="fill:#1c52c4;opacity:0.8;stroke:#ffffff;stroke-linejoin:miter;"/>
   </g>
   <g id="patch_12">
    <path clip-path="url(#p1e368b0e9d)" d="M 716.413926 576 
L 759.586074 576 
L 759.586074 520.045714 
L 716.413926 520.045714 
z
" style="fill:#1c52c4;opacity:0.8;stroke:#ffffff;stroke-linejoin:miter;"/>
   </g>
   <g id="patch_13">
    <path clip-path="url(#p1e368b0e9d)" d="M 770.37911 576 
L 813.551257 576 
L 813.551257 520.045714 
L 770.37911 520.045714 
z
" style="fill:#1c52c4;opacity:0.8;stroke:#ffffff;stroke-linejoin:miter;"/>
   </g>
   <g id="patch_14">
    <path clip-path="url(#p1e368b0e9d)" d="M 824.344294 576 
L 867.516441 576 
L 867.516441 538.697143 
L 824.344294 538.697143 
z
" style="fill:#1c52c4;opacity:0.8;stroke:#ffffff;stroke-linejoin:miter;"/>
   </g>
   <g id="patch_15">
    <path clip-path="url(#p1e368b0e9d)" d="M 878.309478 576 
L 921.481625 576 
L 921.481625 538.697143 
L 878.309478 538.697143 
z
" style="fill:#1c52c4;opacity:0.8;stroke:#ffffff;stroke-linejoin:miter;"/>
   </g>
   <g id="patch_16">
    <path clip-path="url(#p1e368b0e9d)" d="M 932.274662 576 
L 975.446809 576 
L 975.446809 538.697143 
L 932.274662 538.697143 
z
" style="fill:#1c52c4;opacity:0.8;stroke:#ffffff;stroke-linejoin:miter;"/>
   </g>
   <g id="patch_17">
    <path clip-path="url(#p1e368b0e9d)" d="M 986.239845 576 
L 1029.411992 576 
L 1029.411992 557.348571 
L 986.239845 557.348571 
z
" style="fill:#1c52c4;opacity:0.8;stroke:#ffffff;stroke-linejoin:miter;"/>
   </g>
   <g id="patch_18">
    <path clip-path="url(#p1e368b0e9d)" d="M 1040.205029 576 
L 1083.377176 576 
L 1083.377176 557.348571 
L 1040.205029 557.348571 
z
" style="fill:#1c52c4;opacity:0.8;stroke:#ffffff;stroke-linejoin:miter;"/>
   </g>
   <g id="patch_19">
    <path clip-path="url(#p1e368b0e9d)" d="M 1094.170213 576 
L 1137.34236 576 
L 1137.34236 557.348571 
L 1094.170213 557.348571 
z
" style="fill:#1c52c4;opacity:0.8;stroke:#ffffff;stroke-linejoin:miter;"/>
   </g>
   <g id="patch_20">
    <path clip-path="url(#p1e368b0e9d)" d="M 1148.135397 576 
L 1191.307544 576 
L 1191.307544 557.348571 
L 1148.135397 557.348571 
z
" style="fill:#1c52c4;opacity:0.8;stroke:#ffffff;stroke-linejoin:miter;"/>
   </g>
   <g id="patch_21">
    <path clip-path="url(#p1e368b0e9d)" d="M 1202.10058 576 
L 1245.272727 576 
L 1245.272727 557.348571 
L 1202.10058 557.348571 
z
" style="fill:#1c52c4;opacity:0.8;stroke:#ffffff;stroke-linejoin:miter;"/>
   </g>
   <g id="line2d_7">
    <path clip-path="url(#p1e368b0e9d)" d="M 0 0 
" style="fill:none;stroke:#424242;stroke-linecap:round;stroke-width:2.7;"/>
   </g>
   <g id="line2d_8">
    <path clip-path="url(#p1e368b0e9d)" d="M 0 0 
" style="fill:none;stroke:#424242;stroke-linecap:round;stroke-width:2.7;"/>
   </g>
   <g id="line2d_9">
    <path clip-path="url(#p1e368b0e9d)" d="M 0 0 
" style="fill:none;stroke:#424242;stroke-linecap:round;stroke-width:2.7;"/>
   </g>
   <g id="line2d_10">
    <path clip-path="url(#p1e368b0e9d)" d="M 0 0 
" style="fill:none;stroke:#424242;stroke-linecap:round;stroke-width:2.7;"/>
   </g>
   <g id="line2d_11">
    <path clip-path="url(#p1e368b0e9d)" d="M 0 0 
" style="fill:none;stroke:#424242;stroke-linecap:round;stroke-width:2.7;"/>
   </g>
   <g id="line2d_12">
    <path clip-path="url(#p1e368b0e9d)" d="M 0 0 
" style="fill:none;stroke:#424242;stroke-linecap:round;stroke-width:2.7;"/>
   </g>
   <g id="line2d_13">
    <path clip-path="url(#p1e368b0e9d)" d="M 0 0 
" style="fill:none;stroke:#424242;stroke-linecap:round;stroke-width:2.7;"/>
   </g>
   <g id="line2d_14">
    <path clip-path="url(#p1e368b0e9d)" d="M 0 0 
" style="fill:none;stroke:#424242;stroke-linecap:round;stroke-width:2.7;"/>
   </g>
   <g id="line2d_15">
    <path clip-path="url(#p1e368b0e9d)" d="M 0 0 
" style="fill:none;stroke:#424242;stroke-linecap:round;stroke-width:2.7;"/>
   </g>
   <g id="line2d_16">
    <path clip-path="url(#p1e368b0e9d)" d="M 0 0 
" style="fill:none;stroke:#424242;stroke-linecap:round;stroke-width:2.7;"/>
   </g>
   <g id="line2d_17">
    <path clip-path="url(#p1e368b0e9d)" d="M 0 0 
" style="fill:none;stroke:#424242;stroke-linecap:round;stroke-width:2.7;"/>
   </g>
   <g id="line2d_18">
    <path clip-path="url(#p1e368b0e9d)" d="M 0 0 
" style="fill:none;stroke:#424242;stroke-linecap:round;stroke-width:2.7;"/>
   </g>
   <g id="line2d_19">
    <path clip-path="url(#p1e368b0e9d)" d="M 0 0 
" style="fill:none;stroke:#424242;stroke-linecap:round;stroke-width:2.7;"/>
   </g>
   <g id="line2d_20">
    <path clip-path="url(#p1e368b0e9d)" d="M 0 0 
" style="fill:none;stroke:#424242;stroke-linecap:round;stroke-width:2.7;"/>
   </g>
   <g id="line2d_21">
    <path clip-path="url(#p1e368b0e9d)" d="M 0 0 
" style="fill:none;stroke:#424242;stroke-linecap:round;stroke-width:2.7;"/>
   </g>
   <g id="line2d_22">
    <path clip-path="url(#p1e368b0e9d)" d="M 0 0 
" style="fill:none;stroke:#424242;stroke-linecap:round;stroke-width:2.7;"/>
   </g>
   <g id="line2d_23">
    <path clip-path="url(#p1e368b0e9d)" d="M 0 0 
" style="fill:none;stroke:#424242;stroke-linecap:round;stroke-width:2.7;"/>
   </g>
   <g id="line2d_24">
    <path clip-path="url(#p1e368b0e9d)" d="M 0 0 
" style="fill:none;stroke:#424242;stroke-linecap:round;stroke-width:2.7;"/>
   </g>
   <g id="line2d_25">
    <path clip-path="url(#p1e368b0e9d)" d="M 0 0 
" style="fill:none;stroke:#424242;stroke-linecap:round;stroke-width:2.7;"/>
   </g>
   <g id="patch_22">
    <path d="M 180 576 
L 180 86.4 
" style="fill:none;stroke:#cccccc;stroke-linecap:square;stroke-linejoin:miter;stroke-width:1.25;"/>
   </g>
   <g id="patch_23">
    <path d="M 1296 576 
L 1296 86.4 
" style="fill:none;stroke:#cccccc;stroke-linecap:square;stroke-linejoin:miter;stroke-width:1.25;"/>
   </g>
   <g id="patch_24">
    <path d="M 180 576 
L 1296 576 
" style="fill:none;stroke:#cccccc;stroke-linecap:square;stroke-linejoin:miter;stroke-width:1.25;"/>
   </g>
   <g id="patch_25">
    <path d="M 180 86.4 
L 1296 86.4 
" style="fill:none;stroke:#cccccc;stroke-linecap:square;stroke-linejoin:miter;stroke-width:1.25;"/>
   </g>
  </g>
  <g id="axes_2">
   <g id="matplotlib.axis_3">
    <g id="ytick_7">
     <g id="line2d_26">
      <path clip-path="url(#p1e368b0e9d)" d="M 180 576 
L 1296 576 
" style="fill:none;stroke:#cccccc;stroke-linecap:round;"/>
     </g>
     <g id="line2d_27">
      <defs>
       <path d="M 0 0 
L 6 0 
" id="m5433770f6f" style="stroke:#262626;stroke-width:1.25;"/>
      </defs>
      <g>
       <use style="fill:#262626;stroke:#262626;stroke-width:1.25;" x="1296" xlink:href="#m5433770f6f" y="576"/>
      </g>
     </g>
     <g id="text_27">
      <!-- 0% -->
      <defs>
       <path d="M 5.8125 54.390625 
Q 5.8125 62.0625 9.671875 67.421875 
Q 13.53125 72.796875 20.84375 72.796875 
Q 27.59375 72.796875 32 67.984375 
Q 36.421875 63.1875 36.421875 53.859375 
Q 36.421875 44.78125 31.953125 39.875 
Q 27.484375 34.96875 20.953125 34.96875 
Q 14.453125 34.96875 10.125 39.796875 
Q 5.8125 44.625 5.8125 54.390625 
z
M 21.09375 66.75 
Q 17.828125 66.75 15.65625 63.90625 
Q 13.484375 61.078125 13.484375 53.515625 
Q 13.484375 46.625 15.671875 43.8125 
Q 17.875 41.015625 21.09375 41.015625 
Q 24.421875 41.015625 26.59375 43.84375 
Q 28.765625 46.6875 28.765625 54.203125 
Q 28.765625 61.140625 26.5625 63.9375 
Q 24.359375 66.75 21.09375 66.75 
z
M 21.140625 -2.640625 
L 60.296875 72.796875 
L 67.4375 72.796875 
L 28.421875 -2.640625 
z
M 52.09375 16.796875 
Q 52.09375 24.515625 55.953125 29.859375 
Q 59.8125 35.203125 67.1875 35.203125 
Q 73.921875 35.203125 78.34375 30.390625 
Q 82.765625 25.59375 82.765625 16.265625 
Q 82.765625 7.171875 78.296875 2.265625 
Q 73.828125 -2.640625 67.234375 -2.640625 
Q 60.75 -2.640625 56.421875 2.21875 
Q 52.09375 7.078125 52.09375 16.796875 
z
M 67.4375 29.15625 
Q 64.109375 29.15625 61.9375 26.3125 
Q 59.765625 23.484375 59.765625 15.921875 
Q 59.765625 9.078125 61.953125 6.25 
Q 64.15625 3.421875 67.390625 3.421875 
Q 70.75 3.421875 72.921875 6.25 
Q 75.09375 9.078125 75.09375 16.609375 
Q 75.09375 23.53125 72.890625 26.34375 
Q 70.703125 29.15625 67.4375 29.15625 
z
" id="ArialMT-37"/>
      </defs>
      <g style="fill:#262626;" transform="translate(1305.5 579.936797)scale(0.11 -0.11)">
       <use xlink:href="#ArialMT-48"/>
       <use x="55.615234" xlink:href="#ArialMT-37"/>
      </g>
     </g>
    </g>
    <g id="ytick_8">
     <g id="line2d_28">
      <path clip-path="url(#p1e368b0e9d)" d="M 180 481.710159 
L 1296 481.710159 
" style="fill:none;stroke:#cccccc;stroke-linecap:round;"/>
     </g>
     <g id="line2d_29">
      <g>
       <use style="fill:#262626;stroke:#262626;stroke-width:1.25;" x="1296" xlink:href="#m5433770f6f" y="481.710159"/>
      </g>
     </g>
     <g id="text_28">
      <!-- 20% -->
      <g style="fill:#262626;" transform="translate(1305.5 485.646956)scale(0.11 -0.11)">
       <use xlink:href="#ArialMT-50"/>
       <use x="55.615234" xlink:href="#ArialMT-48"/>
       <use x="111.230469" xlink:href="#ArialMT-37"/>
      </g>
     </g>
    </g>
    <g id="ytick_9">
     <g id="line2d_30">
      <path clip-path="url(#p1e368b0e9d)" d="M 180 387.420318 
L 1296 387.420318 
" style="fill:none;stroke:#cccccc;stroke-linecap:round;"/>
     </g>
     <g id="line2d_31">
      <g>
       <use style="fill:#262626;stroke:#262626;stroke-width:1.25;" x="1296" xlink:href="#m5433770f6f" y="387.420318"/>
      </g>
     </g>
     <g id="text_29">
      <!-- 40% -->
      <defs>
       <path d="M 32.328125 0 
L 32.328125 17.140625 
L 1.265625 17.140625 
L 1.265625 25.203125 
L 33.9375 71.578125 
L 41.109375 71.578125 
L 41.109375 25.203125 
L 50.78125 25.203125 
L 50.78125 17.140625 
L 41.109375 17.140625 
L 41.109375 0 
z
M 32.328125 25.203125 
L 32.328125 57.46875 
L 9.90625 25.203125 
z
" id="ArialMT-52"/>
      </defs>
      <g style="fill:#262626;" transform="translate(1305.5 391.357115)scale(0.11 -0.11)">
       <use xlink:href="#ArialMT-52"/>
       <use x="55.615234" xlink:href="#ArialMT-48"/>
       <use x="111.230469" xlink:href="#ArialMT-37"/>
      </g>
     </g>
    </g>
    <g id="ytick_10">
     <g id="line2d_32">
      <path clip-path="url(#p1e368b0e9d)" d="M 180 293.130477 
L 1296 293.130477 
" style="fill:none;stroke:#cccccc;stroke-linecap:round;"/>
     </g>
     <g id="line2d_33">
      <g>
       <use style="fill:#262626;stroke:#262626;stroke-width:1.25;" x="1296" xlink:href="#m5433770f6f" y="293.130477"/>
      </g>
     </g>
     <g id="text_30">
      <!-- 60% -->
      <defs>
       <path d="M 49.75 54.046875 
L 41.015625 53.375 
Q 39.84375 58.546875 37.703125 60.890625 
Q 34.125 64.65625 28.90625 64.65625 
Q 24.703125 64.65625 21.53125 62.3125 
Q 17.390625 59.28125 14.984375 53.46875 
Q 12.59375 47.65625 12.5 36.921875 
Q 15.671875 41.75 20.265625 44.09375 
Q 24.859375 46.4375 29.890625 46.4375 
Q 38.671875 46.4375 44.84375 39.96875 
Q 51.03125 33.5 51.03125 23.25 
Q 51.03125 16.5 48.125 10.71875 
Q 45.21875 4.9375 40.140625 1.859375 
Q 35.0625 -1.21875 28.609375 -1.21875 
Q 17.625 -1.21875 10.6875 6.859375 
Q 3.765625 14.9375 3.765625 33.5 
Q 3.765625 54.25 11.421875 63.671875 
Q 18.109375 71.875 29.4375 71.875 
Q 37.890625 71.875 43.28125 67.140625 
Q 48.6875 62.40625 49.75 54.046875 
z
M 13.875 23.1875 
Q 13.875 18.65625 15.796875 14.5 
Q 17.71875 10.359375 21.1875 8.171875 
Q 24.65625 6 28.46875 6 
Q 34.03125 6 38.03125 10.484375 
Q 42.046875 14.984375 42.046875 22.703125 
Q 42.046875 30.125 38.078125 34.390625 
Q 34.125 38.671875 28.125 38.671875 
Q 22.171875 38.671875 18.015625 34.390625 
Q 13.875 30.125 13.875 23.1875 
z
" id="ArialMT-54"/>
      </defs>
      <g style="fill:#262626;" transform="translate(1305.5 297.067274)scale(0.11 -0.11)">
       <use xlink:href="#ArialMT-54"/>
       <use x="55.615234" xlink:href="#ArialMT-48"/>
       <use x="111.230469" xlink:href="#ArialMT-37"/>
      </g>
     </g>
    </g>
    <g id="ytick_11">
     <g id="line2d_34">
      <path clip-path="url(#p1e368b0e9d)" d="M 180 198.840636 
L 1296 198.840636 
" style="fill:none;stroke:#cccccc;stroke-linecap:round;"/>
     </g>
     <g id="line2d_35">
      <g>
       <use style="fill:#262626;stroke:#262626;stroke-width:1.25;" x="1296" xlink:href="#m5433770f6f" y="198.840636"/>
      </g>
     </g>
     <g id="text_31">
      <!-- 80% -->
      <defs>
       <path d="M 17.671875 38.8125 
Q 12.203125 40.828125 9.5625 44.53125 
Q 6.9375 48.25 6.9375 53.421875 
Q 6.9375 61.234375 12.546875 66.546875 
Q 18.171875 71.875 27.484375 71.875 
Q 36.859375 71.875 42.578125 66.421875 
Q 48.296875 60.984375 48.296875 53.171875 
Q 48.296875 48.1875 45.671875 44.5 
Q 43.0625 40.828125 37.75 38.8125 
Q 44.34375 36.671875 47.78125 31.875 
Q 51.21875 27.09375 51.21875 20.453125 
Q 51.21875 11.28125 44.71875 5.03125 
Q 38.234375 -1.21875 27.640625 -1.21875 
Q 17.046875 -1.21875 10.546875 5.046875 
Q 4.046875 11.328125 4.046875 20.703125 
Q 4.046875 27.6875 7.59375 32.390625 
Q 11.140625 37.109375 17.671875 38.8125 
z
M 15.921875 53.71875 
Q 15.921875 48.640625 19.1875 45.40625 
Q 22.46875 42.1875 27.6875 42.1875 
Q 32.765625 42.1875 36.015625 45.375 
Q 39.265625 48.578125 39.265625 53.21875 
Q 39.265625 58.0625 35.90625 61.359375 
Q 32.5625 64.65625 27.59375 64.65625 
Q 22.5625 64.65625 19.234375 61.421875 
Q 15.921875 58.203125 15.921875 53.71875 
z
M 13.09375 20.65625 
Q 13.09375 16.890625 14.875 13.375 
Q 16.65625 9.859375 20.171875 7.921875 
Q 23.6875 6 27.734375 6 
Q 34.03125 6 38.125 10.046875 
Q 42.234375 14.109375 42.234375 20.359375 
Q 42.234375 26.703125 38.015625 30.859375 
Q 33.796875 35.015625 27.4375 35.015625 
Q 21.234375 35.015625 17.15625 30.90625 
Q 13.09375 26.8125 13.09375 20.65625 
z
" id="ArialMT-56"/>
      </defs>
      <g style="fill:#262626;" transform="translate(1305.5 202.777432)scale(0.11 -0.11)">
       <use xlink:href="#ArialMT-56"/>
       <use x="55.615234" xlink:href="#ArialMT-48"/>
       <use x="111.230469" xlink:href="#ArialMT-37"/>
      </g>
     </g>
    </g>
    <g id="ytick_12">
     <g id="line2d_36">
      <path clip-path="url(#p1e368b0e9d)" d="M 180 104.550794 
L 1296 104.550794 
" style="fill:none;stroke:#cccccc;stroke-linecap:round;"/>
     </g>
     <g id="line2d_37">
      <g>
       <use style="fill:#262626;stroke:#262626;stroke-width:1.25;" x="1296" xlink:href="#m5433770f6f" y="104.550794"/>
      </g>
     </g>
     <g id="text_32">
      <!-- 100% -->
      <g style="fill:#262626;" transform="translate(1305.5 108.487591)scale(0.11 -0.11)">
       <use xlink:href="#ArialMT-49"/>
       <use x="55.615234" xlink:href="#ArialMT-48"/>
       <use x="111.230469" xlink:href="#ArialMT-48"/>
       <use x="166.845703" xlink:href="#ArialMT-37"/>
      </g>
     </g>
    </g>
   </g>
   <g id="PathCollection_1">
    <defs>
     <path d="M 0 3 
C 0.795609 3 1.55874 2.683901 2.12132 2.12132 
C 2.683901 1.55874 3 0.795609 3 0 
C 3 -0.795609 2.683901 -1.55874 2.12132 -2.12132 
C 1.55874 -2.683901 0.795609 -3 0 -3 
C -0.795609 -3 -1.55874 -2.683901 -2.12132 -2.12132 
C -2.683901 -1.55874 -3 -0.795609 -3 0 
C -3 0.795609 -2.683901 1.55874 -2.12132 2.12132 
C -1.55874 2.683901 -0.795609 3 0 3 
z
" id="m4b6d2b4775" style="stroke:#ffffff;stroke-width:0.75;"/>
    </defs>
    <g clip-path="url(#p1e368b0e9d)">
     <use style="fill:#f5002f;stroke:#ffffff;stroke-width:0.75;" x="252.313346" xlink:href="#m4b6d2b4775" y="467.566683"/>
     <use style="fill:#f5002f;stroke:#ffffff;stroke-width:0.75;" x="306.27853" xlink:href="#m4b6d2b4775" y="396.849302"/>
     <use style="fill:#f5002f;stroke:#ffffff;stroke-width:0.75;" x="360.243714" xlink:href="#m4b6d2b4775" y="330.846413"/>
     <use style="fill:#f5002f;stroke:#ffffff;stroke-width:0.75;" x="414.208897" xlink:href="#m4b6d2b4775" y="278.987"/>
     <use style="fill:#f5002f;stroke:#ffffff;stroke-width:0.75;" x="468.174081" xlink:href="#m4b6d2b4775" y="250.700048"/>
     <use style="fill:#f5002f;stroke:#ffffff;stroke-width:0.75;" x="522.139265" xlink:href="#m4b6d2b4775" y="222.413096"/>
     <use style="fill:#f5002f;stroke:#ffffff;stroke-width:0.75;" x="576.104449" xlink:href="#m4b6d2b4775" y="208.26962"/>
     <use style="fill:#f5002f;stroke:#ffffff;stroke-width:0.75;" x="630.069632" xlink:href="#m4b6d2b4775" y="189.411651"/>
     <use style="fill:#f5002f;stroke:#ffffff;stroke-width:0.75;" x="684.034816" xlink:href="#m4b6d2b4775" y="175.268175"/>
     <use style="fill:#f5002f;stroke:#ffffff;stroke-width:0.75;" x="738" xlink:href="#m4b6d2b4775" y="165.839191"/>
     <use style="fill:#f5002f;stroke:#ffffff;stroke-width:0.75;" x="791.965184" xlink:href="#m4b6d2b4775" y="151.695715"/>
     <use style="fill:#f5002f;stroke:#ffffff;stroke-width:0.75;" x="845.930368" xlink:href="#m4b6d2b4775" y="142.266731"/>
     <use style="fill:#f5002f;stroke:#ffffff;stroke-width:0.75;" x="899.895551" xlink:href="#m4b6d2b4775" y="132.837747"/>
     <use style="fill:#f5002f;stroke:#ffffff;stroke-width:0.75;" x="953.860735" xlink:href="#m4b6d2b4775" y="128.123255"/>
     <use style="fill:#f5002f;stroke:#ffffff;stroke-width:0.75;" x="1007.825919" xlink:href="#m4b6d2b4775" y="123.408763"/>
     <use style="fill:#f5002f;stroke:#ffffff;stroke-width:0.75;" x="1061.791103" xlink:href="#m4b6d2b4775" y="118.694271"/>
     <use style="fill:#f5002f;stroke:#ffffff;stroke-width:0.75;" x="1115.756286" xlink:href="#m4b6d2b4775" y="113.979779"/>
     <use style="fill:#f5002f;stroke:#ffffff;stroke-width:0.75;" x="1169.72147" xlink:href="#m4b6d2b4775" y="109.265286"/>
     <use style="fill:#f5002f;stroke:#ffffff;stroke-width:0.75;" x="1223.686654" xlink:href="#m4b6d2b4775" y="104.550794"/>
    </g>
   </g>
   <g id="line2d_38">
    <path clip-path="url(#p1e368b0e9d)" d="M 252.313346 467.566683 
L 306.27853 396.849302 
L 360.243714 330.846413 
L 414.208897 278.987 
L 468.174081 250.700048 
L 522.139265 222.413096 
L 576.104449 208.26962 
L 630.069632 189.411651 
L 684.034816 175.268175 
L 738 165.839191 
L 791.965184 151.695715 
L 845.930368 142.266731 
L 899.895551 132.837747 
L 953.860735 128.123255 
L 1007.825919 123.408763 
L 1061.791103 118.694271 
L 1115.756286 113.979779 
L 1169.72147 109.265286 
L 1223.686654 104.550794 
" style="fill:none;stroke:#f5002f;stroke-linecap:round;stroke-width:1.5;"/>
   </g>
   <g id="patch_26">
    <path d="M 180 576 
L 180 86.4 
" style="fill:none;stroke:#cccccc;stroke-linecap:square;stroke-linejoin:miter;stroke-width:1.25;"/>
   </g>
   <g id="patch_27">
    <path d="M 1296 576 
L 1296 86.4 
" style="fill:none;stroke:#cccccc;stroke-linecap:square;stroke-linejoin:miter;stroke-width:1.25;"/>
   </g>
   <g id="patch_28">
    <path d="M 180 576 
L 1296 576 
" style="fill:none;stroke:#cccccc;stroke-linecap:square;stroke-linejoin:miter;stroke-width:1.25;"/>
   </g>
   <g id="patch_29">
    <path d="M 180 86.4 
L 1296 86.4 
" style="fill:none;stroke:#cccccc;stroke-linecap:square;stroke-linejoin:miter;stroke-width:1.25;"/>
   </g>
  </g>
 </g>
 <defs>
  <clipPath id="p1e368b0e9d">
   <rect height="489.6" width="1116" x="180" y="86.4"/>
  </clipPath>
 </defs>
</svg>
